<svg id="Capa_1" enable-background="new 0 0 512 512" height="512" viewBox="0 0 512 512" width="512" xmlns="http://www.w3.org/2000/svg"><g><g><circle cx="256" cy="256" fill="#fdf6ec" r="248.513"/></g><g><path d="m504.516 256c0 137.246-111.27 248.516-248.516 248.516-34.411 0-67.195-6.998-96.994-19.636 24.308 7.936 50.264 12.229 77.218 12.229 137.246 0 248.506-111.26 248.506-248.506 0-102.884-62.513-191.154-151.621-228.919 99.5 32.444 171.407 125.984 171.407 236.316z" fill="#fae2c0"/></g><g><g><path d="m432.57 257.295c0 8.445-7.945 15.999-9.524 23.98-1.627 8.224 2.793 18.235-.345 25.802-3.192 7.699-13.428 11.639-18.009 18.482-4.616 6.895-4.367 17.851-10.213 23.697s-16.802 5.597-23.697 10.213c-6.843 4.581-10.783 14.817-18.482 18.009-7.567 3.138-17.578-1.282-25.802.345-7.981 1.579-15.536 9.524-23.98 9.524-8.445 0-15.999-7.945-23.98-9.524-8.224-1.627-18.235 2.793-25.802-.345-7.699-3.193-11.639-13.428-18.482-18.01-6.895-4.616-17.851-4.367-23.697-10.213s-5.597-16.802-10.213-23.697c-4.581-6.843-14.817-10.783-18.009-18.482-3.138-7.567 1.282-17.578-.345-25.802-1.579-7.981-9.524-15.536-9.524-23.98 0-8.445 7.945-15.999 9.524-23.98 1.627-8.224-2.793-18.235.345-25.802 3.192-7.699 13.428-11.639 18.009-18.482 4.616-6.895 4.367-17.851 10.213-23.697s16.802-5.597 23.697-10.213c6.843-4.581 10.783-14.817 18.482-18.009 7.567-3.138 17.578 1.282 25.802-.345 7.981-1.579 15.536-9.524 23.98-9.524 8.445 0 15.999 7.945 23.98 9.524 8.224 1.627 18.235-2.793 25.802.345 7.699 3.192 11.639 13.428 18.482 18.009 6.895 4.616 17.851 4.367 23.697 10.213s5.597 16.802 10.213 23.697c4.581 6.843 14.817 10.783 18.009 18.482 3.138 7.567-1.282 17.578.345 25.802 1.579 7.982 9.524 15.536 9.524 23.981z" fill="#fddeb0"/></g><g><path d="m423.043 281.275c1.577-7.976 9.524-15.534 9.524-23.979 0-8.446-7.946-16.003-9.524-23.979-1.627-8.226 2.795-18.239-.34-25.806-3.195-7.697-13.427-11.64-18.009-18.478-4.622-6.898-4.372-17.849-10.213-23.7-5.421-5.411-15.214-5.59-22.112-9.274 1.008.609 1.927 1.308 2.756 2.137 9.728 9.729 7.714 27.798 17.835 37.798 3.923 3.876 9.999 6.491 10.915 11.931.866 5.141-1.615 9.924-1.759 14.975-.168 5.925.573 11.919 4.084 16.669 2.999 4.058 7.145 6.704 6.904 12.37-.345 8.08-7.862 14.37-9.408 22.199-1.627 8.226 2.785 18.229-.35 25.796-3.194 7.707-13.427 11.64-18.009 18.488-5.712 8.537-4.341 18.946-15.398 23.394-4.848 1.95-10.17 3.116-13.326 7.643-2.986 4.283-3.135 10.068-7.062 13.782-4.961 4.693-10.706 2.723-16.882 1.82-3.023-.442-5.879-1.616-8.818-.556-2.396.864-4.715 2.644-6.447 4.475-2.899 3.065-5.341 5.609-9.619 6.289-4.583.728-9.273.181-13.781 1.482-3.225.931-5.771 2.972-9.265 3.365 5.8 2.905 11.55 7.228 17.779 7.228 8.446 0 15.993-7.936 23.979-9.524 8.226-1.627 18.239 2.795 25.796-.34 7.707-3.194 11.64-13.427 18.488-18.009 6.898-4.622 17.85-4.372 23.7-10.213 5.84-5.85 5.591-16.801 10.213-23.7 4.582-6.838 14.815-10.782 18.009-18.478 3.136-7.567-1.287-17.579.34-25.805z" fill="#fccd7f"/></g><g><path d="m275.874 329.375c0-9.711-5.568-18.117-13.683-22.213 4.979-7.605 5.599-17.669.743-26.079s-13.881-12.905-22.957-12.396c.509-9.076-3.986-18.101-12.396-22.957s-18.474-4.236-26.079.743c-4.097-8.115-12.502-13.683-22.213-13.683s-18.117 5.569-22.213 13.683c-7.605-4.979-17.669-5.599-26.079-.743s-12.905 13.881-12.396 22.957c-9.076-.509-18.101 3.986-22.957 12.396s-4.236 18.474.743 26.079c-8.115 4.097-13.683 12.502-13.683 22.213s5.568 18.117 13.683 22.214c-4.979 7.605-5.599 17.669-.743 26.079s13.881 12.905 22.957 12.396c-.509 9.076 3.986 18.101 12.396 22.957s18.474 4.236 26.079-.743c4.097 8.115 12.502 13.683 22.213 13.683s18.117-5.569 22.213-13.683c7.605 4.979 17.669 5.599 26.079.743s12.905-13.881 12.396-22.957c9.076.51 18.101-3.986 22.957-12.396s4.236-18.474-.743-26.079c8.114-4.097 13.683-12.503 13.683-22.214z" fill="#faf7f7"/></g><g><path d="m275.876 329.378c0-8.499-4.265-15.997-10.768-20.481-1.532-1.056-2.007-3.094-1.216-4.778 3.348-7.12 3.274-15.705-.954-23.039-4.247-7.343-11.671-11.699-19.53-12.344-1.858-.152-3.323-1.617-3.475-3.476-.644-7.866-5.002-15.291-12.354-19.53-2.595-1.499-5.348-2.476-8.136-2.964-3.519-.615-5.898 3.552-3.536 6.232 4.56 5.175 9.375 13.311 9.647 28.283.039 2.141 1.829 3.839 3.968 3.736 7.869-.377 15.714-.02 19.301 7.693 3.127 6.722 2.354 11.716-2.559 17.082-1.57 1.714-1.144 4.421.788 5.712 5.415 3.616 8.208 8.104 7.019 15.412-1.325 8.138-5.326 12.319-11.47 15.9-1.84 1.073-2.448 3.42-1.367 5.255 3.773 6.405 5.862 12.722 2.257 20.165-2.432 5.021-8.087 7.018-15.317 7.185-2.114.049-3.799 1.763-3.762 3.877.132 7.565-.776 14.353-4.559 17.731-5.008 4.472-13.035 4.17-20 .908-1.875-.878-4.134-.201-5.058 1.652-5.767 11.567-16.236 15.456-24.415 17.261-3.64.803-4.015 5.814-.57 7.238 2.921 1.207 6.123 1.874 9.48 1.874 8.499 0 15.997-4.265 20.481-10.768 1.056-1.532 3.094-2.007 4.778-1.216 7.12 3.348 15.704 3.273 23.029-.964 7.352-4.238 11.709-11.661 12.354-19.52.152-1.858 1.617-3.323 3.475-3.475 7.859-.645 15.283-5.003 19.53-12.354 4.228-7.325 4.302-15.908.954-23.028-.792-1.685-.317-3.725 1.215-4.782 6.505-4.49 10.77-11.987 10.77-20.477z" fill="#f3eae6"/></g><g><g><g><path d="m112.747 119.513c-17.245 8.302-32.944 24.016-33.309 43.152-.421 22.075 17.264 42.785 38.564 46.478 32.237 5.589 64.9-12.813 78.929-41.931 12.553-26.055 11.137-61.146-17.093-76.58-12.301-6.725-26.614-6.166-37.932 2.331-10.558 7.926-16.938 20.666-29.159 26.55z" fill="#e19974"/></g><g><path d="m196.932 167.214c-13.652 28.332-44.943 46.513-76.314 42.326 24.771-3.224 47.282-19.482 58.3-42.345 12.548-26.051 11.136-61.153-17.094-76.585-2.698-1.475-5.494-2.596-8.342-3.366 8.662-2.396 17.981-1.192 26.356 3.384 28.23 15.433 29.651 50.53 17.094 76.586z" fill="#dc8758"/></g><g><path d="m143.011 130.895c6.671-2.623 13.079 4.605 12.791 12.309-.281 7.504-4.41 17.373-12.779 18.618-10.962 1.629-19.492-7.061-13.231-17.675 2.436-4.129 6.212-7.408 9.568-10.762 1.199-1.199 2.429-2.01 3.651-2.49z" fill="#fddeb0"/></g><g><path d="m155.8 143.199c-.281 7.508-4.411 17.375-12.772 18.624-2.511.37-4.889.206-6.991-.402 4.989-3.546 7.512-10.767 7.731-16.563.159-4.408-1.868-8.664-4.876-11.008.166-.152.319-.308.472-.463 1.202-1.199 2.428-2.011 3.65-2.487 6.669-2.631 13.075 4.603 12.786 12.299z" fill="#fdd79b"/></g></g><g><g><path d="m206.126 119.513c-17.245 8.302-32.944 24.016-33.309 43.152-.421 22.075 17.264 42.785 38.564 46.478 32.237 5.589 64.9-12.813 78.929-41.931 12.553-26.055 11.137-61.146-17.093-76.58-12.301-6.725-26.614-6.166-37.932 2.331-10.558 7.926-16.937 20.666-29.159 26.55z" fill="#e19974"/></g><g><path d="m290.312 167.214c-13.652 28.332-44.943 46.513-76.314 42.326 24.771-3.224 47.282-19.482 58.3-42.345 12.548-26.051 11.136-61.153-17.094-76.585-2.698-1.475-5.494-2.596-8.342-3.366 8.662-2.396 17.981-1.192 26.356 3.384 28.229 15.433 29.65 50.53 17.094 76.586z" fill="#dc8758"/></g><g><path d="m236.39 130.895c6.671-2.623 13.079 4.605 12.791 12.309-.281 7.504-4.41 17.373-12.779 18.618-10.962 1.629-19.492-7.061-13.231-17.675 2.436-4.129 6.212-7.408 9.568-10.762 1.199-1.199 2.43-2.01 3.651-2.49z" fill="#fddeb0"/></g><g><path d="m249.179 143.199c-.281 7.508-4.411 17.375-12.772 18.624-2.511.37-4.889.206-6.991-.402 4.989-3.546 7.512-10.767 7.731-16.563.159-4.408-1.868-8.664-4.876-11.008.166-.152.319-.308.472-.463 1.202-1.199 2.428-2.011 3.65-2.487 6.669-2.631 13.075 4.603 12.786 12.299z" fill="#fdd79b"/></g></g><g><g><path d="m297.781 119.513c-17.245 8.302-32.944 24.016-33.309 43.152-.421 22.075 17.264 42.785 38.564 46.478 32.237 5.589 64.9-12.813 78.929-41.931 12.553-26.055 11.137-61.146-17.093-76.58-12.301-6.725-26.614-6.166-37.932 2.331-10.558 7.926-16.937 20.666-29.159 26.55z" fill="#e19974"/></g><g><path d="m381.967 167.214c-13.652 28.332-44.943 46.513-76.314 42.326 24.771-3.224 47.282-19.482 58.3-42.345 12.548-26.051 11.136-61.153-17.094-76.585-2.698-1.475-5.494-2.596-8.342-3.366 8.662-2.396 17.981-1.192 26.356 3.384 28.229 15.433 29.65 50.53 17.094 76.586z" fill="#dc8758"/></g><g><path d="m328.046 130.895c6.671-2.623 13.079 4.605 12.791 12.309-.281 7.504-4.41 17.373-12.779 18.618-10.962 1.629-19.492-7.061-13.231-17.675 2.436-4.129 6.212-7.408 9.568-10.762 1.198-1.199 2.429-2.01 3.651-2.49z" fill="#fddeb0"/></g><g><path d="m340.834 143.199c-.281 7.508-4.411 17.375-12.772 18.624-2.511.37-4.889.206-6.991-.402 4.989-3.546 7.512-10.767 7.731-16.563.159-4.408-1.868-8.664-4.876-11.008.166-.152.319-.308.472-.463 1.202-1.199 2.428-2.011 3.65-2.487 6.669-2.631 13.075 4.603 12.786 12.299z" fill="#fdd79b"/></g><g><path d="m437.02 74.981c-48.353-48.352-112.64-74.981-181.02-74.981s-132.667 26.629-181.019 74.981-74.981 112.639-74.981 181.019 26.629 132.667 74.981 181.02 112.639 74.98 181.019 74.98c63.645 0 124.654-23.509 171.79-66.197 3.065-2.776 3.299-7.511.523-10.576s-7.51-3.299-10.576-.524c-44.375 40.189-101.815 62.323-161.737 62.323-64.38 0-124.907-25.071-170.431-70.595-45.524-45.524-70.595-106.05-70.595-170.431s25.071-124.907 70.595-170.431 106.051-70.595 170.431-70.595 124.907 25.071 170.43 70.595c45.525 45.524 70.596 106.051 70.596 170.431 0 56.356-19.856 111.177-55.911 154.365-2.65 3.174-2.225 7.896.949 10.546 3.175 2.65 7.896 2.225 10.546-.949 38.299-45.875 59.39-104.105 59.39-163.962 0-68.38-26.628-132.667-74.98-181.019z"/><path d="m434.124 274.565c2.781-4.956 5.934-10.575 5.934-17.27 0-6.696-3.152-12.313-5.934-17.27-1.682-2.998-3.271-5.83-3.733-8.163-.495-2.504-.102-5.827.313-9.345.658-5.563 1.402-11.869-1.086-17.872-2.533-6.108-7.572-10.068-12.017-13.561-2.739-2.152-5.325-4.184-6.687-6.219-.499-.745-.966-1.683-1.427-2.867-1.502-3.851-5.841-5.757-9.696-4.256-3.852 1.502-5.758 5.843-4.256 9.696.863 2.213 1.824 4.097 2.936 5.758 2.684 4.009 6.506 7.012 9.878 9.662 3.294 2.588 6.405 5.032 7.437 7.522.992 2.392.533 6.272.048 10.38-.509 4.306-1.086 9.187-.132 14.008.925 4.673 3.181 8.695 5.363 12.584 2.067 3.683 4.019 7.162 4.019 9.943s-1.952 6.26-4.019 9.943c-2.182 3.889-4.439 7.911-5.363 12.585-.953 4.82-.377 9.701.132 14.007.486 4.108.944 7.988-.048 10.38-1.032 2.49-4.143 4.935-7.437 7.523-3.372 2.65-7.194 5.653-9.877 9.662-2.709 4.046-4.039 8.753-5.213 12.905-1.132 4.006-2.201 7.791-4.073 9.663s-5.657 2.942-9.664 4.074c-4.152 1.173-8.858 2.503-12.905 5.212-4.008 2.683-7.011 6.505-9.66 9.877-2.588 3.294-5.033 6.405-7.524 7.438-2.392.991-6.271.533-10.379.048-4.306-.509-9.186-1.085-14.007-.132-4.674.925-8.696 3.181-12.585 5.363-3.683 2.067-7.162 4.019-9.943 4.019-2.193 0-4.807-1.187-8.059-2.97-3.627-1.989-8.178-.659-10.165 2.966-1.988 3.626-.659 8.177 2.966 10.165 4.561 2.5 9.565 4.813 15.257 4.813 6.695 0 12.313-3.152 17.27-5.934 2.999-1.682 5.831-3.271 8.163-3.733 2.505-.494 5.827-.103 9.344.313 5.565.659 11.87 1.402 17.872-1.086 6.109-2.533 10.069-7.573 13.562-12.019 2.152-2.738 4.184-5.324 6.217-6.685 2.073-1.388 5.265-2.29 8.646-3.245 5.413-1.529 11.548-3.263 16.181-7.895 4.632-4.633 6.365-10.767 7.895-16.18.955-3.38 1.857-6.573 3.245-8.647 1.361-2.033 3.948-4.066 6.686-6.218 4.446-3.493 9.485-7.453 12.018-13.561 2.489-6.003 1.745-12.309 1.087-17.872-.415-3.518-.808-6.841-.313-9.344.461-2.334 2.05-5.167 3.733-8.165z"/><path d="m283.361 329.375c0-9.746-4.292-18.728-11.548-24.792 3.252-8.879 2.478-18.805-2.395-27.244s-13.081-14.073-22.396-15.696c-1.624-9.316-7.257-17.524-15.696-22.396s-18.364-5.648-27.245-2.395c-6.064-7.256-15.047-11.548-24.792-11.548s-18.728 4.292-24.792 11.548c-8.88-3.252-18.805-2.478-27.245 2.395-8.444 4.875-14.079 13.089-15.699 22.411-.122.021-.244.044-.365.067-4.063.767-6.735 4.683-5.968 8.746s4.687 6.738 8.746 5.968c1.389-.262 2.805-.356 4.214-.276 2.125.12 4.206-.674 5.713-2.181s2.301-3.586 2.181-5.714c-.37-6.602 2.949-12.753 8.664-16.053 5.714-3.3 12.701-3.1 18.234.523 1.783 1.167 3.979 1.518 6.039.968 2.059-.552 3.786-1.955 4.746-3.858 2.981-5.904 8.932-9.571 15.53-9.571 6.599 0 12.549 3.667 15.53 9.571.96 1.903 2.687 3.306 4.746 3.858 2.059.551 4.255.199 6.039-.968 5.533-3.622 12.519-3.823 18.234-.523s9.034 9.451 8.664 16.053c-.119 2.128.674 4.207 2.181 5.714 1.507 1.508 3.582 2.301 5.714 2.181 6.605-.378 12.753 2.949 16.053 8.664 3.3 5.714 3.099 12.701-.523 18.234-1.167 1.784-1.519 3.98-.968 6.04.552 2.059 1.955 3.785 3.858 4.746 5.903 2.98 9.57 8.93 9.57 15.53 0 6.599-3.667 12.549-9.571 15.53-1.903.961-3.306 2.687-3.858 4.746-.551 2.059-.199 4.255.968 6.039 3.622 5.533 3.823 12.519.523 18.234-3.3 5.716-9.451 9.038-16.052 8.664-2.135-.12-4.207.673-5.714 2.181-1.507 1.507-2.301 3.585-2.181 5.714.37 6.603-2.949 12.754-8.664 16.053-5.715 3.298-12.702 3.099-18.234-.523-1.784-1.167-3.981-1.52-6.039-.968-2.059.552-3.786 1.955-4.746 3.858-2.98 5.903-8.931 9.57-15.53 9.57s-12.55-3.667-15.53-9.57c-.961-1.903-2.687-3.306-4.746-3.858-2.061-.55-4.256-.199-6.039.968-5.533 3.622-12.52 3.822-18.234.523-5.715-3.3-9.034-9.451-8.664-16.053.119-2.129-.674-4.207-2.181-5.714-1.508-1.508-3.587-2.3-5.714-2.181-6.601.371-12.753-2.948-16.052-8.664-3.3-5.714-3.099-12.7.524-18.233 1.167-1.783 1.519-3.98.968-6.039-.552-2.059-1.955-3.786-3.858-4.746-5.904-2.98-9.571-8.931-9.571-15.53s3.667-12.55 9.57-15.53c1.903-.961 3.306-2.687 3.858-4.746s.199-4.256-.969-6.039c-1.729-2.641-2.711-5.707-2.84-8.866-.168-4.132-3.654-7.354-7.786-7.176-4.132.168-7.344 3.654-7.176 7.786.136 3.351.791 6.646 1.926 9.771-7.262 6.064-11.558 15.051-11.558 24.801 0 9.745 4.292 18.728 11.548 24.792-3.252 8.879-2.477 18.805 2.395 27.244 4.872 8.44 13.08 14.074 22.396 15.697 1.624 9.316 7.257 17.524 15.696 22.396 8.44 4.872 18.365 5.647 27.244 2.395 6.064 7.256 15.047 11.548 24.792 11.548s18.728-4.292 24.792-11.548c8.879 3.251 18.804 2.476 27.245-2.395 8.439-4.873 14.073-13.081 15.696-22.397 9.316-1.623 17.524-7.257 22.396-15.696s5.647-18.365 2.395-27.245c7.259-6.067 11.551-15.05 11.551-24.795z"/><path d="m191.832 273.327c-2.836-3.01-7.575-3.151-10.584-.316-3.01 2.835-3.151 7.574-.316 10.584l5.24 5.563c1.474 1.564 3.46 2.354 5.452 2.354 1.841 0 3.687-.675 5.132-2.037 3.01-2.835 3.151-7.574.316-10.584z"/><path d="m226.371 336.212c4.029 0 7.356-3.203 7.479-7.259l.233-7.639c.126-4.133-3.123-7.586-7.256-7.712-4.12-.134-7.586 3.122-7.712 7.256l-.233 7.639c-.126 4.133 3.123 7.586 7.256 7.712.079.002.156.003.233.003z"/><path d="m164.34 323.165c-.637 4.086 2.16 7.914 6.246 8.55l7.551 1.176c.39.061.778.09 1.162.09 3.627 0 6.813-2.641 7.389-6.336.637-4.086-2.16-7.914-6.246-8.55l-7.551-1.176c-4.089-.64-7.915 2.159-8.551 6.246z"/><path d="m127.372 331.805c1.215 0 2.447-.296 3.588-.921l6.703-3.67c3.628-1.985 4.958-6.535 2.972-10.162-1.985-3.626-6.536-4.959-10.162-2.972l-6.703 3.67c-3.628 1.985-4.958 6.535-2.972 10.162 1.361 2.486 3.926 3.893 6.574 3.893z"/><path d="m199.694 380.016 7.245 2.432c.79.265 1.594.391 2.384.391 3.128 0 6.046-1.977 7.097-5.107 1.316-3.92-.795-8.165-4.716-9.481l-7.245-2.432c-3.92-1.316-8.164.795-9.481 4.716-1.315 3.92.796 8.165 4.716 9.481z"/><path d="m150.155 376.569c4.135 0 7.487-3.352 7.487-7.487v-7.642c0-4.135-3.352-7.487-7.487-7.487s-7.487 3.352-7.487 7.487v7.642c0 4.135 3.352 7.487 7.487 7.487z"/><path d="m312.545 332.283c-3.875 1.444-5.846 5.755-4.403 9.63 1.123 3.014 3.98 4.875 7.017 4.875.868 0 1.751-.152 2.613-.473 49.978-18.619 74.713-63.271 66.168-119.443-.621-4.088-4.435-6.896-8.528-6.276-4.088.621-6.898 4.44-6.276 8.528 3.585 23.569.514 45.378-8.88 63.069-9.801 18.459-25.854 31.947-47.711 40.09z"/><path d="m183.429 84.062c-15.038-8.222-32.673-7.107-46.019 2.913-4.978 3.737-8.951 8.204-12.793 12.524-4.791 5.386-9.316 10.474-15.118 13.267-17.857 8.596-37.098 26.181-37.548 49.756-.484 25.41 19.601 49.634 44.771 53.997 4.302.746 8.628 1.118 12.963 1.118 7.027 0 14.076-.979 21.068-2.932 3.982-1.113 6.309-5.244 5.197-9.226-1.113-3.982-5.242-6.309-9.226-5.197-9.145 2.555-18.379 3.053-27.443 1.482-17.883-3.1-32.701-20.941-32.358-38.958.21-11.005 7.957-26.385 29.072-36.549 8.504-4.095 14.253-10.558 19.812-16.809 3.505-3.941 6.816-7.664 10.594-10.5 8.719-6.546 19.877-7.2 29.845-1.749 4.046 2.212 7.568 4.974 10.467 8.21 2.759 3.079 7.493 3.339 10.573.58s3.34-7.493.58-10.573c-4.038-4.504-8.895-8.324-14.437-11.354z"/><path d="m140.355 169.509c14.024-.001 22.443-13.062 22.929-26.026.259-6.928-3.031-13.857-8.382-17.65-4.417-3.132-9.75-3.827-14.631-1.906-2.232.877-4.32 2.278-6.204 4.162-.592.592-1.198 1.181-1.807 1.773-3.009 2.927-6.418 6.245-8.917 10.48-4.118 6.982-4.193 14.689-.199 20.619 3.665 5.444 10.05 8.549 17.211 8.548zm-4.115-21.558c2.125-3.601 5.499-6.358 8.412-9.271.199-.199.848-.891 1.173-.846.688.094 2.602 2.218 2.494 5.09-.188 5.013-2.862 10.967-6.398 11.493-3.207.474-5.544-.61-6.358-1.82-.957-1.422.013-3.522.677-4.646z"/><path d="m269.625 97.2c4.045 2.211 7.567 4.974 10.468 8.211 2.759 3.079 7.493 3.339 10.573.579 3.079-2.759 3.339-7.493.579-10.573-4.038-4.506-8.895-8.327-14.436-11.356-15.041-8.224-32.674-7.106-46.019 2.913-4.978 3.737-8.951 8.204-12.793 12.524-4.791 5.386-9.316 10.474-15.118 13.267-5.91 2.845-11.968 6.68-17.45 11.386-3.752-9.247-10.595-16.904-19.453-20.74-3.797-1.644-8.203.101-9.846 3.895-1.643 3.795.101 8.203 3.895 9.846 8.037 3.481 12.52 11.973 13.435 20.371-4.745 7.16-7.847 15.41-8.11 24.576-1.312 1.573-2.76 3.053-4.335 4.418-5.94 5.148-12.066 8.66-18.207 10.436-8.834 2.555-18.191 1.265-23.84-3.285-3.331-2.684-5.599-5.993-5.921-8.636-.5-4.104-4.226-7.026-8.337-6.529-4.105.5-7.028 4.232-6.528 8.337 1.092 8.98 7.606 15.438 11.391 18.488 6.42 5.172 15.062 7.897 24.194 7.897 4.352 0 8.816-.619 13.202-1.888 7.299-2.111 14.43-5.927 21.241-11.343 6.371 18.222 22.638 33.186 41.893 36.524 4.302.746 8.628 1.118 12.963 1.118 7.027 0 14.075-.979 21.067-2.932 3.982-1.113 6.309-5.244 5.197-9.226s-5.241-6.309-9.226-5.197c-9.145 2.555-18.378 3.053-27.443 1.482-17.883-3.101-32.701-20.941-32.357-38.958.21-11.005 7.957-26.385 29.071-36.549 8.504-4.095 14.253-10.558 19.812-16.808 3.505-3.941 6.816-7.664 10.594-10.501 8.718-6.542 19.874-7.197 29.844-1.747z"/><path d="m233.65 123.927c-2.232.877-4.319 2.278-6.204 4.162-3.83 3.828-7.929 7.515-10.724 12.253-4.118 6.981-4.193 14.689-.2 20.619 3.666 5.443 10.051 8.548 17.212 8.548 14.034 0 22.443-13.065 22.928-26.026.259-6.928-3.031-13.856-8.382-17.65-4.415-3.13-9.747-3.826-14.63-1.906zm8.049 18.997c-.188 5.013-2.862 10.966-6.398 11.492-3.206.476-5.543-.61-6.359-1.82-.957-1.421.014-3.521.678-4.646 1.479-2.507 8.021-8.951 8.841-9.694.18-.163.473-.458.743-.423.688.094 2.602 2.217 2.495 5.091z"/><path d="m314.461 217.606c30.529-.002 60.419-18.437 74.25-47.145 7.157-14.856 9.85-31.894 7.388-46.747-2.927-17.657-12.483-31.368-27.635-39.653-15.041-8.224-32.674-7.106-46.019 2.913-4.978 3.737-8.951 8.204-12.793 12.524-4.791 5.386-9.316 10.474-15.118 13.267-5.458 2.627-11.043 6.099-16.183 10.32-3.836-8.766-10.482-15.987-18.995-19.674-3.797-1.644-8.203.101-9.846 3.895-1.643 3.795.101 8.203 3.895 9.846 7.387 3.199 11.753 10.631 13.121 18.332-5.615 7.724-9.345 16.817-9.54 27.037-.01.501.003 1.002.009 1.502-.826.865-1.688 1.703-2.601 2.495-5.94 5.148-12.065 8.66-18.206 10.436-8.833 2.554-18.192 1.265-23.84-3.285-3.331-2.684-5.6-5.993-5.921-8.636-.499-4.104-4.223-7.026-8.337-6.529-4.105.5-7.028 4.232-6.528 8.337 1.092 8.98 7.606 15.438 11.391 18.488 6.42 5.172 15.062 7.897 24.194 7.897 4.352 0 8.816-.619 13.202-1.888 6.816-1.972 13.481-5.445 19.879-10.302 6.618 17.751 22.641 32.208 41.529 35.483 4.221.733 8.466 1.087 12.704 1.087zm-42.503-54.798c.21-11.005 7.957-26.385 29.071-36.549 8.504-4.095 14.253-10.558 19.812-16.808 3.505-3.941 6.817-7.664 10.594-10.501 4.796-3.6 10.329-5.418 15.997-5.418 4.636 0 9.362 1.216 13.848 3.669 23.958 13.098 25.147 43.5 13.94 66.761-12.907 26.789-42.729 42.686-70.905 37.804-17.882-3.101-32.7-20.941-32.357-38.958z"/><path d="m332.004 191.339c8.238-2.383 16.264-6.927 23.853-13.505 8.965-7.771 15.044-18.269 17.117-29.561 3.427-18.668-6.016-37.954-21.963-44.861-3.797-1.644-8.203.101-9.846 3.895-1.643 3.795.101 8.203 3.895 9.846 10.67 4.621 15.083 18.077 13.185 28.416-1.461 7.958-5.792 15.398-12.196 20.949-5.94 5.148-12.065 8.66-18.206 10.436-8.833 2.554-18.191 1.265-23.84-3.285-3.331-2.684-5.6-5.993-5.921-8.636-.499-4.104-4.225-7.026-8.337-6.529-4.105.5-7.028 4.232-6.528 8.337 1.092 8.98 7.606 15.438 11.391 18.488 6.42 5.172 15.062 7.897 24.194 7.897 4.352.001 8.817-.618 13.202-1.887z"/><path d="m325.39 169.509c14.031 0 22.444-13.073 22.928-26.026.259-6.928-3.031-13.856-8.382-17.65-4.415-3.13-9.747-3.826-14.631-1.906-3.223 1.267-5.581 3.571-8.012 5.936-3.009 2.927-6.418 6.244-8.916 10.479-4.118 6.981-4.193 14.689-.2 20.619 3.666 5.443 10.051 8.548 17.213 8.548zm-4.115-21.559c1.479-2.507 3.899-4.862 6.461-7.354.658-.64 2.345-2.302 2.569-2.462.128-.092.391-.323.554-.301.687.092 2.602 2.216 2.495 5.09-.188 5.013-2.862 10.966-6.398 11.492-3.207.476-5.544-.61-6.359-1.82-.956-1.42.014-3.52.678-4.645z"/></g></g></g></g></g></svg>