<?xml version="1.0" encoding="iso-8859-1"?>
<!-- Generator: Adobe Illustrator 19.0.0, SVG Export Plug-In . SVG Version: 6.00 Build 0)  -->
<svg version="1.1" id="Capa_1" xmlns="http://www.w3.org/2000/svg" xmlns:xlink="http://www.w3.org/1999/xlink" x="0px" y="0px"
	 viewBox="0 0 512 512" style="enable-background:new 0 0 512 512;" xml:space="preserve">
<circle style="fill:#FFE4CC;" cx="255.996" cy="256.007" r="248.427"/>
<path style="fill:#FFD8C7;" d="M431.66,80.343c-23.146-23.147-49.728-40.756-78.099-52.857
	c38.621,90.544,21.012,199.354-52.857,273.223s-182.68,91.479-273.223,52.857c12.102,28.372,29.712,54.953,52.857,78.099
	c97.016,97.015,254.308,97.015,351.322,0S528.675,177.357,431.66,80.343z"/>
<circle style="fill:#FFF0E3;" cx="255.996" cy="256.007" r="181.778"/>
<path style="fill:#FFE8DE;" d="M384.532,127.471c-3.628-3.628-7.377-7.06-11.223-10.317c2.099,66.181-22.094,133.038-72.61,183.555
	c-50.514,50.514-117.366,74.707-183.544,72.61c3.256,3.845,6.686,7.592,10.313,11.218c70.987,70.987,186.078,70.987,257.065,0
	S455.518,198.458,384.532,127.471z"/>
<circle style="fill:#FF5331;" cx="156.717" cy="247.417" r="109.839"/>
<path style="fill:#E5281A;" d="M142.399,273.116c-6.819-6.07-11.277-16.082-11.277-27.414c0-11.333,4.458-21.344,11.277-27.414
	v-53.373c-38.104,7.169-66.94,40.6-66.94,80.788c0,40.186,28.836,73.619,66.94,80.787L142.399,273.116L142.399,273.116z"/>
<circle cx="193.577" cy="201.108" r="8"/>
<circle cx="209.586" cy="228.127" r="8"/>
<circle cx="209.586" cy="260.137" r="8"/>
<circle cx="193.577" cy="285.747" r="8"/>
<circle style="fill:#E3B361;" cx="116.928" cy="283.927" r="8"/>
<path style="fill:#EF4B30;" d="M266.414,247.123c0-38.052-19.353-71.583-48.749-91.294L72.551,317.868
	c20.15,23.906,50.308,39.097,84.02,39.097C217.235,356.966,266.414,307.787,266.414,247.123z"/>
<path style="fill:#D31E1A;" d="M142.399,326.489v-53.374c-5.451-4.853-9.386-12.229-10.748-20.781l-39.049,43.604
	C104.675,311.547,122.238,322.696,142.399,326.489z"/>
<path style="fill:#EF4B30;" d="M156.719,137.575c-12.94,0-25.354,2.244-36.882,6.354c-4.159,11.591-6.431,24.081-6.431,37.102
	c0,60.664,49.178,109.842,109.842,109.842c12.94,0,25.354-2.244,36.882-6.354c4.159-11.591,6.431-24.081,6.431-37.102
	C266.562,186.753,217.383,137.575,156.719,137.575z"/>
<path style="fill:#D31E1A;" d="M131.363,241.228c1.002-9.467,5.131-17.683,11.036-22.94v-53.373
	c-10.466,1.969-20.227,5.93-28.889,11.458c-0.065,1.546-0.105,3.097-0.105,4.659C113.405,203.258,120.014,223.939,131.363,241.228z"
	/>
<circle style="fill:#FF5331;" cx="239.916" cy="164.358" r="109.839"/>
<g>
	<path style="fill:#E5281A;" d="M225.598,190.059c-6.819-6.07-11.277-16.082-11.277-27.414c0-11.333,4.458-21.344,11.277-27.414
		V81.858c-38.104,7.169-66.94,40.6-66.94,80.788c0,40.186,28.836,73.619,66.94,80.787L225.598,190.059L225.598,190.059z"/>
	<path style="fill:#E5281A;" d="M252.944,81.304v51.464c8.61,5.547,14.509,16.839,14.509,29.877c0,13.038-5.9,24.33-14.509,29.877
		v51.464c39.696-5.834,70.173-40.023,70.173-81.341C323.116,121.329,292.64,87.139,252.944,81.304z"/>
</g>
<circle style="fill:#E3B361;" cx="276.775" cy="118.049" r="8"/>
<circle cx="292.785" cy="145.079" r="8"/>
<circle cx="292.785" cy="177.078" r="8"/>
<circle cx="276.775" cy="202.688" r="8"/>
<circle cx="200.127" cy="200.868" r="8"/>
<path style="fill:#F7C96F;" d="M409.072,389.623L409.072,389.623c-73.417,81.98-199.39,88.923-281.37,15.506l-43.553-39.004
	c-6.671-5.974-7.236-16.226-1.262-22.897l244.23-272.717c5.974-6.671,16.226-7.236,22.897-1.262l43.553,39.003
	C475.547,181.669,482.489,307.642,409.072,389.623z"/>
<path style="fill:#EF4B30;" d="M295.362,69.527L151.754,229.885c20.022,26.895,52.057,44.317,88.163,44.317
	c60.664,0,109.842-49.178,109.842-109.842C349.759,123.922,327.903,88.593,295.362,69.527z"/>
<g>
	<path style="fill:#D31E1A;" d="M323.116,162.646c0-32.145-18.45-59.968-45.333-73.488l-24.839,27.737v15.875
		c8.61,5.547,14.509,16.839,14.509,29.877c0,13.038-5.9,24.33-14.509,29.877v51.464C292.64,238.152,323.116,203.963,323.116,162.646
		z"/>
	<path style="fill:#D31E1A;" d="M171.903,207.388c12.013,18.472,31.241,31.822,53.695,36.046v-53.374
		c-6.819-6.07-11.277-16.082-11.277-27.414c0-0.922,0.04-1.831,0.098-2.734L171.903,207.388z"/>
</g>
<path style="fill:#EFBB60;" d="M377.838,358.597l-4.791,5.349c-72.094,80.503-195.798,87.32-276.301,15.227l0,0
	c-5.881-5.267-6.379-14.304-1.112-20.186L342.427,83.407c5.267-5.881,14.304-6.379,20.186-1.112l0,0
	C443.115,154.389,449.932,278.094,377.838,358.597z"/>
<path style="fill:#FEDE7A;" d="M363.51,344.269l-4.791,5.349c-72.094,80.503-195.797,87.32-276.301,15.227l0,0
	c-5.881-5.267-6.379-14.304-1.112-20.186L328.099,69.08c5.267-5.881,14.304-6.379,20.186-1.112l0,0
	C428.786,140.062,435.604,263.765,363.51,344.269z"/>
<g>
	<path style="fill:#F8ACCC;" d="M331.469,218.115h-17.451c-2.153,0-3.898-1.745-3.898-3.898v-17.451
		c0-2.153,1.745-3.898,3.898-3.898h17.451c2.153,0,3.898,1.745,3.898,3.898v17.451C335.367,216.369,333.622,218.115,331.469,218.115
		z"/>
	<path style="fill:#F8ACCC;" d="M240.099,265.844l-8.726-15.113c-1.076-1.864-0.438-4.248,1.427-5.324l15.113-8.726
		c1.864-1.076,4.248-0.438,5.324,1.427l8.726,15.113c1.076,1.864,0.438,4.248-1.427,5.324l-15.113,8.726
		C243.559,268.347,241.175,267.708,240.099,265.844z"/>
	<path style="fill:#F8ACCC;" d="M288.041,426.513l1.329-17.401c0.164-2.146,2.037-3.753,4.183-3.59l17.401,1.329
		c2.146,0.164,3.753,2.037,3.59,4.183l-1.329,17.401c-0.164,2.146-2.037,3.753-4.183,3.59l-17.401-1.329
		C289.484,430.532,287.877,428.659,288.041,426.513z"/>
</g>
<path style="fill:#EFA8C9;" d="M314.055,408.834c-0.617-1.098-1.751-1.879-3.102-1.982l-17.401-1.329
	c-2.146-0.164-4.019,1.443-4.183,3.59l-0.775,10.146C297.274,416.404,305.783,412.922,314.055,408.834z"/>
<path style="fill:#F8ACCC;" d="M373.912,347.731l1.329-17.401c0.164-2.146,2.037-3.753,4.183-3.59l17.401,1.329
	c2.146,0.164,3.753,2.037,3.59,4.183l-1.329,17.401c-0.164,2.146-2.037,3.753-4.183,3.59l-17.401-1.329
	C375.355,351.751,373.748,349.878,373.912,347.731z"/>
<path style="fill:#EFA8C9;" d="M399.477,329.41c-0.649-0.752-1.584-1.259-2.653-1.34l-17.401-1.329
	c-2.146-0.164-4.019,1.443-4.183,3.59l-1.329,17.401c-0.164,2.146,1.443,4.019,3.59,4.183l5.685,0.434
	C389.237,345.002,394.667,337.335,399.477,329.41z"/>
<path style="fill:#F8ACCC;" d="M410.001,259.715l1.329-17.401c0.164-2.146,2.037-3.753,4.183-3.59l17.401,1.329
	c2.146,0.164,3.753,2.037,3.59,4.183l-1.329,17.401c-0.164,2.146-2.037,3.753-4.183,3.59l-17.401-1.329
	C411.444,263.734,409.837,261.861,410.001,259.715z"/>
<path style="fill:#EFA8C9;" d="M415.513,238.725c-2.146-0.164-4.019,1.443-4.183,3.59l-1.329,17.401
	c-0.164,2.146,1.443,4.019,3.59,4.183l10.714,0.818c1.575-8.304,2.604-16.684,3.096-25.084L415.513,238.725z"/>
<g>
	<path style="fill:#F8ACCC;" d="M253.311,351.182l1.329-17.401c0.164-2.146,2.037-3.753,4.183-3.59l17.401,1.329
		c2.146,0.164,3.754,2.037,3.59,4.183l-1.329,17.401c-0.164,2.146-2.037,3.753-4.183,3.59l-17.401-1.329
		C254.754,355.201,253.147,353.328,253.311,351.182z"/>
	<path style="fill:#F8ACCC;" d="M320.613,272.687l13.488-11.074c1.664-1.366,4.12-1.125,5.486,0.539l11.074,13.488
		c1.366,1.664,1.125,4.12-0.539,5.486L336.634,292.2c-1.664,1.366-4.12,1.125-5.486-0.539l-11.074-13.488
		C318.708,276.509,318.949,274.053,320.613,272.687z"/>
</g>
<path style="fill:#49BC6E;" d="M270.063,191.654c-2.436-6.129-7.007-10.772-12.518-13.419c3.489-6.368,4.218-14.186,1.327-21.46
	l-5.3-13.335c-0.339-0.852-1.304-1.268-2.156-0.93l-16.583,6.591c-7.251,2.882-12.423,8.75-14.67,15.63
	c-5.042-1.334-10.54-1.126-15.759,0.949l-16.583,6.591c-0.852,0.339-1.268,1.304-0.93,2.156l5.3,13.335
	c5.148,12.952,19.821,19.278,32.773,14.13l0.968-0.385c5.773,11.654,19.618,17.118,31.918,12.229l18.126-7.205L270.063,191.654z"/>
<path style="fill:#3DA55D;" d="M240.897,173.385l-24.184,0.851c-9.964,0.351-18.896,4.496-25.467,10.993
	c-0.035-0.039-0.072-0.075-0.107-0.114l1.052,2.646c5.148,12.952,19.821,19.278,32.773,14.13l0.968-0.385
	c3.081,6.219,8.461,10.674,14.678,12.735c0.988-3.62,1.463-7.445,1.324-11.393L240.897,173.385z"/>
<path style="fill:#49BC6E;" d="M208.29,189.362c-9.963,0.351-18.896,4.496-25.467,10.993c-7.29-8.205-18.046-13.218-29.872-12.802
	l-21.676,0.763c-1.385,0.049-2.468,1.211-2.419,2.596l0.949,26.956c0.415,11.787,6.137,22.133,14.787,28.83
	c-4.463,6.498-6.962,14.429-6.664,22.913l0.949,26.956c0.049,1.385,1.211,2.468,2.596,2.42l21.676-0.763
	c21.054-0.741,37.52-18.409,36.778-39.462l-0.055-1.574c19.524-2.29,34.343-19.219,33.639-39.211l-1.037-29.464L208.29,189.362z"/>
<path d="M437.016,74.987C405.335,43.305,365.85,20.432,322.834,8.842c-4.035-1.088-8.194,1.303-9.284,5.343
	c-1.088,4.039,1.304,8.195,5.343,9.284c40.461,10.902,77.604,32.421,107.412,62.229c45.49,45.49,70.543,105.973,70.543,170.306
	s-25.053,124.815-70.543,170.306c-45.49,45.49-105.973,70.543-170.306,70.543S131.183,471.8,85.693,426.31
	S15.15,320.336,15.15,256.004S40.203,131.188,85.694,85.697c50.708-50.708,120.798-76.06,192.285-69.544
	c4.156,0.375,7.851-2.69,8.23-6.856c0.38-4.166-2.689-7.85-6.855-8.23C203.366-5.85,128.881,21.089,74.982,74.987
	C26.631,123.338,0.003,187.624,0.003,256.003S26.631,388.668,74.982,437.02C123.335,485.371,187.621,512,256,512
	s132.665-26.629,181.018-74.98c48.351-48.351,74.979-112.637,74.979-181.017S485.368,123.338,437.016,74.987z"/>
<circle cx="106.358" cy="244.137" r="8"/>
<circle cx="200.037" cy="124.549" r="8"/>
<circle cx="292.685" cy="145.079" r="8"/>
<circle cx="292.685" cy="177.078" r="8"/>
<path d="M77.271,370.486c2.226,1.994,4.492,3.928,6.789,5.813l38.493,34.473c38.255,34.259,86.773,52.765,137.725,52.762
	c3.865,0,7.752-0.107,11.642-0.321c55.163-3.04,105.842-27.381,142.698-68.536c36.858-41.156,55.481-94.202,52.441-149.366
	c-3.039-55.164-27.38-105.843-68.535-142.699l-43.552-39.003c-0.907-0.812-1.864-1.545-2.862-2.2
	c-4.172-3.272-9.315-4.924-14.66-4.626c-5.832,0.321-11.19,2.895-15.088,7.247l-8.352,9.326
	c-20.917-17.079-46.972-26.408-74.188-26.408c-54.224,0-99.974,36.951-113.41,86.993c-30.119,8.007-56.064,27.881-71.695,55.119
	c-2.082,3.628-0.828,8.257,2.8,10.339c1.188,0.682,2.483,1.006,3.762,1.006c2.624,0,5.177-1.366,6.576-3.806
	c12.374-21.564,32.161-37.827,55.345-45.851c-0.471,4.057-0.733,8.176-0.778,12.346c-32.881,14.004-54.631,46.548-54.631,82.611
	c0,26.146,11.476,50.935,31.066,67.901l-9.62,10.742c-22.244-19.45-34.882-47.135-34.882-76.929c0-7.929,0.909-15.823,2.703-23.463
	c0.956-4.072-1.57-8.148-5.643-9.105c-4.066-0.958-8.148,1.57-9.105,5.642c-2.059,8.773-3.104,17.831-3.104,26.925
	c0,34.153,14.462,65.892,39.923,88.212l-3.562,3.978C67.525,348.59,68.289,362.442,77.271,370.486z M153.125,195.122
	c9.146-0.315,17.862,3.42,23.944,10.264c1.381,1.554,3.339,2.472,5.417,2.539c2.113,0.063,4.094-0.723,5.571-2.185
	c2.519-2.492,5.417-4.509,8.613-5.996c3.702-1.721,7.67-2.669,11.793-2.814l16.615-0.585l0.501,14.245
	c0.001,0.04,0.002,0.081,0.004,0.121l0.265,7.529c0.555,15.783-11.283,29.585-26.952,31.424c-3.916,0.459-6.824,3.847-6.686,7.788
	l0.055,1.574c0.593,16.847-12.631,31.035-29.477,31.628l-16.614,0.584l-0.3-8.521c0.291-1.278,0.239-2.61-0.136-3.863l-0.335-9.51
	c-0.231-6.59,1.614-12.938,5.337-18.358c2.274-3.31,1.569-7.819-1.606-10.277c-7.213-5.586-11.535-14.008-11.854-23.108
	l-0.77-21.895L153.125,195.122z M166.137,162.646c0-32.748,21.298-61.306,51.792-71.074v40.502
	c-5.956,6.474-9.833,15.354-10.94,24.927c-1.853,0.386-3.685,0.929-5.478,1.641l-3.995,1.588c-0.425-4.02-3.823-7.152-7.955-7.152
	c-4.419,0-8.001,3.582-8.001,8.001c0,1.889,0.659,3.622,1.753,4.991c-3.615,2.345-5.205,6.998-3.555,11.156l4.767,11.992
	c-0.494,0.324-0.985,0.652-1.466,0.994c-4.276-3.486-9.115-6.147-14.287-7.884C167.031,175.943,166.137,169.343,166.137,162.646z
	 M260.423,128.977V90.602c9.567,2.59,18.474,7.061,26.315,13.205l-6.39,7.135c-1.098-0.567-2.341-0.893-3.663-0.893
	c-4.419,0-8.001,3.582-8.001,8.001c0,1.636,0.493,3.156,1.337,4.424l-7.528,8.406C261.822,130.216,261.134,129.578,260.423,128.977z
	 M248.624,151.734l3.115,7.839c1.951,4.908,1.611,10.385-0.93,15.024c-0.999,1.823-1.205,3.976-0.569,5.956
	c0.635,1.979,2.057,3.61,3.93,4.51c4.007,1.926,7.118,5.261,8.76,9.391l3.115,7.84l-11.088,4.407
	c-4.75,1.888-9.926,1.636-14.381-0.594l-0.628-17.86c-0.07-2.007-0.936-3.905-2.405-5.274c-1.469-1.37-3.433-2.101-5.43-2.029
	l-24.184,0.851c0,0,0,0-0.001,0c-3.243,0.114-6.423,0.571-9.519,1.346l-2.391-6.014l11.088-4.407
	c3.539-1.407,7.35-1.637,11.023-0.665c3.877,1.025,7.891-1.153,9.137-4.97c1.638-5.011,5.381-9,10.269-10.943L248.624,151.734z
	 M451.936,246.143c2.818,51.124-14.443,100.285-48.601,138.427s-81.124,60.7-132.248,63.517
	c-44.643,2.458-87.808-10.399-123.435-36.455c20.82,7.054,42.754,10.71,65.017,10.71c10.265,0,20.607-0.776,30.931-2.35
	c4.135-0.631,6.976-4.494,6.346-8.629c-0.63-4.135-4.499-6.975-8.628-6.346c-53.062,8.091-106.381-6.619-147.611-40.414
	l-4.601-4.121c-3.549-3.178-3.851-8.652-0.673-12.202l26.579-29.679c0.474-0.402,0.907-0.868,1.283-1.399
	c0.026-0.037,0.046-0.076,0.072-0.113l15.428-17.227c0.534,1.504,1.421,2.871,2.623,3.991c1.881,1.754,4.307,2.708,6.865,2.708
	c0.121,0,0.243-0.002,0.364-0.006l21.676-0.763c11.354-0.4,21.599-4.936,29.357-12.097c3.206,0.325,6.425-1.31,7.959-4.361
	c0.982-1.953,1.085-4.117,0.464-6.045c2.8-4.738,4.767-10.014,5.707-15.62c3.75,1.341,7.998-0.289,9.832-3.939
	c0.722-1.437,0.965-2.987,0.799-4.474c2.552-1.428,4.95-3.093,7.168-4.963c0.041,0.074,0.073,0.151,0.115,0.224l8.725,15.113
	c0,0,0,0.001,0.001,0.001c2.123,3.676,5.986,5.732,9.954,5.732c1.945,0,3.914-0.495,5.716-1.535l15.114-8.726
	c5.476-3.163,7.36-10.192,4.198-15.67l-8.725-15.111c-1.532-2.655-4.006-4.553-6.966-5.347c-2.962-0.792-6.051-0.387-8.705,1.146
	l-5.187,2.995c1.125-3.498,1.828-7.166,2.069-10.936c2.485,0.583,5.031,0.89,7.584,0.89c4.082,0,8.178-0.755,12.056-2.296
	l18.126-7.205c2.82-1.121,4.585-3.748,4.756-6.589c0.143-0.225,0.277-0.46,0.399-0.703c1.984-3.948,0.392-8.758-3.556-10.742
	c-0.246-0.124-0.496-0.233-0.748-0.33l-2.524-6.35c-2.153-5.414-5.665-10.094-10.161-13.636c2.016-6.936,1.694-14.387-1.031-21.243
	l-1.037-2.61l67.886-75.804c1.54-1.719,3.658-2.737,5.963-2.863c1.675-0.097,3.3,0.296,4.724,1.106
	c37.297,33.502,59.354,79.506,62.113,129.575c0.683,12.396,0.159,24.673-1.517,36.699c-0.123,0.54-0.221,1.09-0.265,1.658
	l-0.019,0.252c-4.313,28.784-15.26,56.074-32.195,80.03c-1.263,1.108-2.278,2.494-2.959,4.068
	c-3.367,4.504-6.939,8.889-10.736,13.129l-4.791,5.35c-21.371,23.864-48.572,41.958-78.666,52.327
	c-3.955,1.363-6.056,5.674-4.693,9.628c1.081,3.138,4.018,5.108,7.161,5.108c0.818,0,1.65-0.134,2.467-0.415
	c1.059-0.365,2.106-0.763,3.158-1.146l-1.212,15.868v0.001c-0.481,6.307,4.259,11.83,10.565,12.311l17.399,1.329
	c0.299,0.023,0.597,0.035,0.893,0.035c2.736,0,5.354-0.966,7.453-2.767c2.325-1.996,3.734-4.778,3.967-7.832l0.602-7.883
	c1.386,1.538,3.387,2.51,5.621,2.51c4.183,0,7.574-3.391,7.574-7.574s-3.391-7.574-7.574-7.574c-1.858,0-3.558,0.672-4.876,1.783
	c-0.229-5.732-4.728-10.527-10.583-10.973l-4.7-0.359c21.274-11.22,40.552-26.209,56.727-44.27l2.598-2.9
	c1.452,4.187,5.273,7.338,9.965,7.696l17.399,1.329c0.299,0.023,0.597,0.035,0.893,0.035c2.736,0,5.354-0.966,7.452-2.767
	c2.326-1.996,3.735-4.777,3.968-7.832l1.327-17.398c0.235-3.056-0.735-6.02-2.731-8.347c-1.996-2.325-4.778-3.735-7.832-3.967
	l-6.406-0.489c9.464-15.409,16.658-31.774,21.618-48.63c0.134,0.015,0.264,0.041,0.4,0.051l17.399,1.328
	c0.299,0.023,0.597,0.035,0.893,0.035c2.736,0,5.353-0.966,7.452-2.766c2.325-1.996,3.735-4.778,3.968-7.833l1.328-17.401
	c0.233-3.055-0.738-6.018-2.733-8.343c-1.995-2.326-4.777-3.735-7.832-3.968l-13.356-1.02c3.095-35.79-3.262-72.151-18.845-105.032
	C431.577,159.146,449.449,201.023,451.936,246.143z M244.725,258.873l-5.048-8.746l8.746-5.049l5.049,8.746L244.725,258.873z
	 M418.507,246.556l10.07,0.769l-0.769,10.069l-10.07-0.769L418.507,246.556z M382.418,334.573l10.069,0.769l-0.769,10.069
	l-10.069-0.769L382.418,334.573z M307.42,414.124l-0.769,10.069l-10.069-0.769l0.769-10.069L307.42,414.124z M239.823,62.093
	c23.467,0,45.931,7.983,64.055,22.575l-7.022,7.841c-12.401-9.943-27.084-16.371-42.905-18.697
	c-2.184-0.319-4.388,0.323-6.052,1.762c-1.666,1.439-2.623,3.531-2.623,5.732v51.464c0,1.288,0.327,2.531,0.925,3.627l-14.26,5.668
	c-1.556,0.618-3.037,1.366-4.459,2.197c0.924-1.242,1.943-2.378,3.059-3.371c1.614-1.437,2.537-3.496,2.537-5.657V81.858
	c0-2.254-1.004-4.391-2.739-5.83c-1.736-1.439-4.019-2.031-6.236-1.613c-42.364,7.97-73.113,45.076-73.113,88.231
	c0,5.856,0.57,11.653,1.683,17.337c-0.027,0.001-0.053,0-0.08,0.001l-13.769,0.485c-0.838-5.307-1.268-10.701-1.268-16.108
	c0-7.356,0.787-14.531,2.27-21.451c0.268-0.691,0.435-1.424,0.491-2.18C151.009,95.695,191.564,62.093,239.823,62.093z
	 M82.939,245.702c0-28.117,15.906-53.661,40.43-66.332c0.19,1.491,0.402,2.978,0.648,4.459c-0.04,0.042-0.084,0.078-0.124,0.121
	c-1.837,1.971-2.796,4.539-2.7,7.229l0.351,9.965c-1.322-0.966-2.946-1.542-4.709-1.542c-4.419,0-8.001,3.582-8.001,8.001
	s3.582,8.001,8.001,8.001c1.963,0,3.759-0.71,5.151-1.883l0.155,4.414c0.398,11.356,4.96,22.003,12.723,30.069
	c-3.288,6.7-4.868,14.081-4.601,21.676l0.293,8.327l-5.757,6.428c0.02-0.233,0.036-0.468,0.036-0.707
	c0-4.419-3.582-8.001-8.001-8.001c-4.419,0-8.001,3.582-8.001,8.001s3.582,8.001,8.001,8.001c0.538,0,1.064-0.055,1.573-0.157
	l-9.448,10.55C92.555,288.209,82.939,267.522,82.939,245.702z"/>
<path d="M313.923,225.688h17.452c6.325,0,11.471-5.146,11.471-11.471v-17.451c0-6.325-5.146-11.472-11.471-11.472h-17.452
	c-6.325,0-11.471,5.146-11.471,11.472v17.451C302.452,220.542,307.598,225.688,313.923,225.688z M317.6,200.442h10.099v10.099H317.6
	V200.442z"/>
<path d="M274.511,364.28c5.93,0,10.969-4.587,11.431-10.599l1.328-17.401c0.48-6.306-4.258-11.829-10.565-12.311l-17.399-1.328
	c-6.308-0.485-11.828,4.255-12.314,10.565l-1.328,17.401l0,0c-0.481,6.306,4.258,11.828,10.565,12.311l17.401,1.329
	C273.924,364.268,274.219,364.28,274.511,364.28z M271.118,348.862l-10.07-0.769l0.769-10.069l10.07,0.769L271.118,348.862z"/>
<path d="M329.2,255.759l-13.488,11.073c-4.889,4.014-5.601,11.256-1.587,16.146l11.074,13.487c1.945,2.369,4.695,3.838,7.745,4.138
	c0.383,0.037,0.763,0.056,1.142,0.056c2.645,0,5.187-0.906,7.258-2.607l13.489-11.074c4.888-4.014,5.599-11.256,1.586-16.145
	l-11.074-13.486c-1.945-2.368-4.694-3.838-7.744-4.138C334.552,252.904,331.568,253.815,329.2,255.759z M325.324,278.541
	L325.324,278.541l0.007-0.006C325.329,278.537,325.327,278.539,325.324,278.541z M334.574,284.013l-6.408-7.805l7.805-6.408
	l6.408,7.805L334.574,284.013z"/>
<circle cx="197.097" cy="307.916" r="7.574"/>
<circle cx="284.255" cy="291.927" r="7.574"/>
<circle cx="359.644" cy="404.455" r="7.574"/>
<circle cx="389.064" cy="378.635" r="7.574"/>
<circle cx="242.366" cy="431.215" r="7.574"/>
<circle cx="359.644" cy="378.635" r="7.574"/>
<circle cx="420.573" cy="285.747" r="7.574"/>
<circle cx="435.723" cy="212.558" r="7.574"/>
<circle cx="420.573" cy="323.056" r="7.574"/>
<circle cx="372.114" cy="235.707" r="7.574"/>
<circle cx="322.645" cy="164.918" r="7.574"/>
<g>
</g>
<g>
</g>
<g>
</g>
<g>
</g>
<g>
</g>
<g>
</g>
<g>
</g>
<g>
</g>
<g>
</g>
<g>
</g>
<g>
</g>
<g>
</g>
<g>
</g>
<g>
</g>
<g>
</g>
</svg>
