<svg id="Capa_1" enable-background="new 0 0 511.965 511.965" height="512" viewBox="0 0 511.965 511.965" width="512" xmlns="http://www.w3.org/2000/svg"><g><g><g><path d="m464.922 109.441c-6.536 21.952-26.648 36.141-48.439 36.141-4.777.01-9.623-.674-14.44-2.112l-89.195-26.547c-3.509-1.046-7.039-1.991-10.579-2.836-1.458-.352-2.916-.684-4.374-.996-32.812-7.089-66.801-5.812-99.19 3.831l-21.047 6.265-4.787 1.428-63.361 18.855c-26.759 7.964-54.915-7.27-62.879-34.029-7.964-26.768 7.27-54.915 34.039-62.879l89.195-26.547c56.202-16.733 115.622-16.733 171.823 0l89.195 26.547c26.769 7.964 42.003 36.111 34.039 62.879z" fill="#fea613"/></g><g fill="#fe9901"><path d="m178.315 116.925-89.195 26.547c-1.419.422-2.843.765-4.267 1.059 7.924 1.645 16.358 1.411 24.659-1.059l89.195-26.547c15.362-4.573 31.086-7.26 46.874-8.07-22.582-1.158-45.294 1.529-67.266 8.07z"/><path d="m430.888 46.56-89.195-26.546c-31.408-9.349-63.819-13.469-96.112-12.37 25.497.868 50.921 4.988 75.72 12.37l89.195 26.546c26.762 7.966 41.999 36.118 34.033 62.879-5.495 18.465-20.603 31.44-38.233 35.096 3.408.704 6.818 1.052 10.19 1.051 21.788-.001 41.903-14.198 48.435-36.147 7.966-26.761-7.272-54.913-34.033-62.879z"/></g><path d="m302.27 86.152v27.935c-1.458-.352-2.916-.684-4.374-.996-32.812-7.089-66.801-5.812-99.19 3.831l-21.047 6.265v-37.035c19.528-6.717 40.495-10.368 62.306-10.368 21.81 0 42.776 3.651 62.305 10.368z" fill="#fe9901"/><g><path d="m465.341 106.532 22.237 6.99c5.669 1.782 8.058 8.494 4.79 13.457l-15.791 23.983c-3.312 5.03-10.547 5.418-14.378.771l-14.8-17.952z" fill="#fea613"/></g><path d="m487.577 113.522-22.236-6.99-3.497 5.311 5.341 1.679c5.669 1.782 8.058 8.494 4.79 13.457l-13.402 20.355 3.626 4.398c3.831 4.647 11.066 4.259 14.378-.771l15.791-23.983c3.267-4.962.878-11.674-4.791-13.456z" fill="#fe9901"/><g><path d="m64.571 133.776-7.2 8.728-7.602 9.231c-3.831 4.646-11.071 4.254-14.38-.774l-15.788-23.983c-3.268-4.968-.885-11.675 4.787-13.455l2.906-.915 19.327-6.074z" fill="#fea613"/></g><g><path d="m64.571 133.776-7.2 8.728c-13.525-4.937-24.778-15.566-30.077-29.896l19.327-6.074z" fill="#fe9901"/></g><path d="m255.983 75.784c-21.811 0-42.777 3.65-62.306 10.368v81.402c0 18.774 15.214 33.999 33.999 33.999h5.948v280.554c0 12.349 10.01 22.359 22.359 22.359s22.359-10.01 22.359-22.359v-280.555h5.948c18.784 0 33.999-15.224 33.999-33.999v-81.401c-19.529-6.717-40.495-10.368-62.306-10.368z" fill="#eaf6ff"/><path d="m318.288 86.152v81.402c0 18.774-15.214 33.999-33.999 33.999h-5.953v280.557c0 12.349-10.005 22.354-22.354 22.354-2.826 0-5.521-.523-8.014-1.488 8.397-3.208 14.35-11.343 14.35-20.866v-280.558h5.953c18.784 0 33.999-15.224 33.999-33.999v-81.401c-17.125-5.893-35.356-9.422-54.291-10.197 2.655-.111 5.32-.171 8.004-.171 21.811 0 42.777 3.651 62.305 10.368z" fill="#c8effe"/></g><path d="m500.386 116.532c-1.747-4.9-5.597-8.605-10.56-10.162l-15.673-4.928c3.058-27.381-13.818-53.941-41.13-62.068l-89.193-26.547c-57.249-17.044-118.598-17.16-176.105 0l-89.194 26.546c-27.354 8.14-44.24 34.768-41.117 62.193l-15.272 4.801c-4.966 1.559-8.815 5.264-10.563 10.164-1.748 4.904-1.108 10.215 1.757 14.571l15.787 23.98c5.353 8.539 19.063 10.197 26.434 1.421l9.67-11.737c13.49 8.087 30.194 10.72 46.422 5.891l49.426-14.708c3.971-1.182 6.231-5.357 5.05-9.327s-5.357-6.229-9.327-5.05l-49.427 14.708c-22.883 6.888-48.49-7.108-54.132-31.136-5.359-22.098 7.533-44.837 29.571-51.394l89.195-26.547c5.837-1.738 11.711-3.279 17.611-4.647l-10.668 21.794c-1.821 3.72-.281 8.212 3.439 10.033 1.061.52 2.185.766 3.291.766 2.774 0 5.44-1.546 6.742-4.205l15.695-32.066c13.077-2.159 26.25-3.415 39.441-3.786l-14.33 29.256c-1.822 3.72-.283 8.212 3.437 10.034 1.062.521 2.186.767 3.293.767 2.773 0 5.439-1.545 6.741-4.203l17.56-35.846c12.025.349 24.035 1.442 35.971 3.277l-12.713 25.974c-1.821 3.72-.281 8.212 3.439 10.033 1.061.52 2.185.766 3.291.766 2.774 0 5.44-1.546 6.742-4.205l14.581-29.791c8.046 1.678 16.047 3.687 23.98 6.049l89.195 26.547c22.755 6.771 35.76 30.794 28.989 53.55-6.557 22.066-30.611 35.84-53.551 28.981l-78.395-23.333v-26.796c0-3.202-2.033-6.051-5.061-7.092-40.653-14.155-87.521-14.439-129.49 0-3.027 1.041-5.061 3.89-5.061 7.092v81.401c0 22.363 17.779 40.651 39.946 41.471v273.082c0 16.465 13.395 29.859 29.859 29.859s29.859-13.395 29.859-29.859v-273.082c22.166-.819 39.946-19.107 39.946-41.471v-38.954l74.11 22.058c14.245 4.55 33.108 2.477 46.667-6.095l9.846 11.947c5.929 7.634 20.299 8.269 26.43-1.423l15.793-23.986c2.864-4.354 3.504-9.664 1.756-14.568zm-457.6 30.955c-.334-.018-.801-.145-1.133-.649l-15.787-23.979c-.331-.504-.269-.979-.157-1.29.109-.307.358-.71.928-.889l14.394-4.525c2.882 7.386 7.156 13.891 12.432 19.303l-9.479 11.506c-.386.465-.863.549-1.198.523zm241.504 46.565h-5.948c-4.143 0-7.5 3.357-7.5 7.5v280.554c0 8.193-6.666 14.859-14.859 14.859s-14.859-6.666-14.859-14.859v-280.554c0-4.143-3.357-7.5-7.5-7.5h-5.947c-14.611 0-26.499-11.888-26.499-26.499v-75.968c8.225-2.563 16.609-4.53 25.108-5.91v51.885c0 4.143 3.357 7.5 7.5 7.5s7.5-3.357 7.5-7.5v-53.692c8.429-.658 18.722-.836 28.984-.035v53.728c0 4.143 3.357 7.5 7.5 7.5s7.5-3.357 7.5-7.5v-51.951c8.639 1.382 17.162 3.371 25.519 5.976v75.968c-.001 14.61-11.887 26.498-26.499 26.498zm201.81-71.197-15.789 23.984c-.331.503-.798.63-1.132.647-.348.023-.813-.059-1.194-.521l-9.708-11.779c5.25-5.438 9.479-11.912 12.302-19.146l14.753 4.639c.566.178.815.581.925.888.11.311.173.787-.157 1.288z"/></g></svg>