<?xml version="1.0" encoding="iso-8859-1"?>
<!-- Generator: Adobe Illustrator 19.0.0, SVG Export Plug-In . SVG Version: 6.00 Build 0)  -->
<svg version="1.1" id="Capa_1" xmlns="http://www.w3.org/2000/svg" xmlns:xlink="http://www.w3.org/1999/xlink" x="0px" y="0px"
	 viewBox="0 0 512 512" style="enable-background:new 0 0 512 512;" xml:space="preserve">
<circle style="fill:#F7F0E6;" cx="256" cy="256" r="248.5"/>
<circle style="fill:#ADDF6E;" cx="398.1" cy="241" r="22.851"/>
<circle style="fill:#B0AD70;" cx="248.22" cy="270.35" r="47.876"/>
<g>
	<circle style="fill:#E2E8AA;" cx="319.27" cy="136.1" r="33.384"/>
	<circle style="fill:#E2E8AA;" cx="377.7" cy="294.23" r="48.36"/>
	<circle style="fill:#E2E8AA;" cx="159.89" cy="363.85" r="36.766"/>
	<circle style="fill:#E2E8AA;" cx="99.59" cy="257.92" r="27.28"/>
	<circle style="fill:#E2E8AA;" cx="166.72" cy="138.67" r="27.28"/>
</g>
<circle style="fill:#B0AD70;" cx="236.97" cy="167.52" r="47.876"/>
<circle style="fill:#87CD6E;" cx="300.7" cy="205.01" r="47.876"/>
<g>
	<circle style="fill:#ADDF6E;" cx="199.57" cy="356.16" r="49.24"/>
	<path style="fill:#ADDF6E;" d="M399.323,143.013l0.087-7.908c0.033-2.963-3.24-4.802-5.712-3.168
		c-5.91,3.907-15.376,5.84-23.205,7.543c-12.47,2.712-44.514,9.407-42.371,32.971s53.557,47.129,66.41,30.705
		c8.033-10.265,7.829-25.069,6.546-34.728C399.958,159.998,399.23,151.519,399.323,143.013z"/>
</g>
<circle style="fill:#87CD6E;" cx="144.27" cy="204.33" r="29.991"/>
<g>
	<circle style="fill:#ADDF6E;" cx="166.03" cy="175.31" r="29.991"/>
	<path style="fill:#ADDF6E;" d="M106.043,238.862c0,0-8.095,25.02-7.294,39.867c0.473,8.773-5.687,14.696-10.807,18.074
		c-3.365,2.22-3.487,7.117-0.153,9.385c11.881,8.083,30.886,11.345,30.886,11.345l80.913-51.535l-37.132-34.99L106.043,238.862z"/>
	<path style="fill:#ADDF6E;" d="M267.273,79.657c-10.291,21.66-27.583,28.331-27.583,28.331l1.917,47.249
		c0.514,12.663,16.652,17.657,24.229,7.497l29.463-39.51c6.913-20.299-7.541-37.291-17.131-45.852
		C274.679,74.256,269.281,75.432,267.273,79.657z"/>
</g>
<g>
	
		<ellipse transform="matrix(-0.5 -0.866 0.866 -0.5 119.7874 713.9524)" style="fill:#87CD6E;" cx="265.991" cy="322.397" rx="32.169" ry="56.933"/>
	
		<ellipse transform="matrix(-0.5 -0.866 0.866 -0.5 103.166 504.4828)" style="fill:#87CD6E;" cx="197.213" cy="222.46" rx="32.169" ry="36.889"/>
	
		<ellipse transform="matrix(-0.5 -0.866 0.866 -0.5 330.1248 638.2484)" style="fill:#87CD6E;" cx="349.306" cy="223.827" rx="36.099" ry="39.976"/>
	
		<ellipse transform="matrix(-0.5 -0.866 0.866 -0.5 -10.2716 604.5255)" style="fill:#87CD6E;" cx="169.373" cy="305.228" rx="36.099" ry="39.976"/>
</g>
<g>
	<path style="fill:#B45573;" d="M195.159,282.657l-21.573-10.439c-2.079-1.006-2.941-3.512-1.92-5.584l16.053-32.589
		c1.122-2.277,4.003-3.028,6.094-1.588l25.831,17.799c1.993,1.373,2.398,4.151,0.88,6.036l-20.311,25.23
		C198.998,283.03,196.902,283.501,195.159,282.657z"/>
	<path style="fill:#B45573;" d="M141.328,255.207l-11.218-21.178c-1.081-2.041-0.293-4.572,1.755-5.638l32.221-16.779
		c2.251-1.172,5.019-0.073,5.852,2.325l10.298,29.631c0.794,2.286-0.522,4.765-2.861,5.387l-31.301,8.327
		C144.203,257.779,142.235,256.919,141.328,255.207z"/>
</g>
<path style="fill:#A04B69;" d="M206.567,241.246l-12.755-8.789c-2.09-1.44-4.972-0.689-6.094,1.588l-16.053,32.589
	c-1.02,2.072-0.159,4.578,1.92,5.584l6.931,3.354L206.567,241.246z"/>
<path style="fill:#B45573;" d="M192.809,191.416l-20.671-13.051c-1.992-1.258-2.579-3.897-1.307-5.88l20.002-31.194
	c1.398-2.18,4.404-2.611,6.358-0.912l24.145,20.998c1.863,1.62,1.955,4.482,0.201,6.218l-23.476,23.247
	C196.657,192.234,194.48,192.471,192.809,191.416z"/>
<path style="fill:#A04B69;" d="M209.114,150.748l-11.922-10.368c-1.954-1.699-4.96-1.268-6.358,0.912l-20.002,31.194
	c-1.272,1.983-0.685,4.622,1.307,5.88l6.641,4.193L209.114,150.748z"/>
<g>
	<path style="fill:#FBE6A5;" d="M415.206,307.248l-107.491,45.901c-3.014,1.287-4.743,4.506-4.076,7.715
		c3.566,17.161-5.197,35-21.939,42.149c-16.805,7.176-35.83,1.097-45.729-13.465c-1.803-2.652-5.347-3.48-8.296-2.221L189.4,403.673
		c0,0,35.278,62.446,122.687,25.121C341.223,416.351,419.301,357.174,415.206,307.248z"/>
	<path style="fill:#FBE6A5;" d="M378.634,220.562l-82.214,83.079c-2.306,2.33-2.691,5.963-0.862,8.683
		c9.78,14.546,8.399,34.372-4.406,47.312c-12.853,12.988-32.765,14.54-47.428,4.792c-2.67-1.775-6.265-1.204-8.521,1.075
		l-29.275,29.583c0,0,56.239,44.511,123.094-23.047C351.306,349.52,401.271,265.248,378.634,220.562z"/>
	<path style="fill:#FBE6A5;" d="M316.529,153.782l-48.382,106.397c-1.357,2.984-0.461,6.526,2.196,8.445
		c14.21,10.262,19.775,29.342,12.239,45.913c-7.564,16.634-25.708,24.981-42.839,20.91c-3.12-0.741-6.295,1.038-7.622,3.957
		l-17.228,37.887c0,0,68.168,22.298,107.512-64.222C335.518,284.228,353.231,187.873,316.529,153.782z"/>
</g>
<g>
	<path style="fill:#B99B88;" d="M233.955,305.732c8.33,23.102-3.646,48.583-26.748,56.913l-0.383-15.78
		c-0.147-6.068-6.197-10.209-11.907-8.15l-12.817,4.621c-4.533,1.635-9.544-0.639-11.299-5.127l-6.481-16.571
		c-1.823-4.661,0.558-9.908,5.266-11.605l13.264-4.783c5.71-2.059,7.725-9.107,3.966-13.873l-9.775-12.393
		C200.144,270.654,225.625,282.63,233.955,305.732z"/>
	<path style="fill:#B99B88;" d="M441.29,189.079c8.33,23.102-3.646,48.583-26.748,56.913l-0.383-15.78
		c-0.147-6.068-6.197-10.209-11.907-8.15l-12.817,4.621c-4.533,1.635-9.544-0.639-11.299-5.127l-6.481-16.571
		c-1.823-4.661,0.558-9.908,5.266-11.605l13.264-4.783c5.71-2.059,7.725-9.107,3.966-13.873l-9.775-12.394
		C407.48,154.002,432.961,165.977,441.29,189.079z"/>
</g>
<g>
	<path style="fill:#B45573;" d="M269.509,252.96l-27.897,14.019c-2.688,1.351-5.962,0.254-7.294-2.443L213.364,222.1
		c-1.464-2.965,0.045-6.539,3.191-7.557l38.881-12.585c2.999-0.971,6.191,0.813,6.936,3.876l9.97,41.001
		C272.938,249.288,271.763,251.827,269.509,252.96z"/>
	<path style="fill:#B45573;" d="M133.284,362.973l-26.113-13.566c-2.516-1.307-3.487-4.414-2.162-6.921l20.841-39.438
		c1.456-2.756,5.019-3.577,7.534-1.736l31.082,22.747c2.398,1.755,2.798,5.178,0.87,7.439l-25.81,30.256
		C137.983,363.564,135.395,364.069,133.284,362.973z"/>
	<path style="fill:#B45573;" d="M265.171,172.195l-15.192-25.201c-1.464-2.429-0.67-5.585,1.769-7.032l38.362-22.761
		c2.681-1.59,6.148-0.431,7.333,2.452l14.639,35.627c1.129,2.748-0.316,5.877-3.141,6.799l-37.808,12.335
		C268.87,175.152,266.399,174.232,265.171,172.195z"/>
	<path style="fill:#B45573;" d="M144.37,178.976l-24.538-6.999c-2.365-0.674-3.728-3.146-3.036-5.505l10.87-37.12
		c0.76-2.594,3.644-3.909,6.1-2.781l30.352,13.938c2.342,1.075,3.275,3.914,2.028,6.169l-16.684,30.181
		C148.464,178.664,146.353,179.542,144.37,178.976z"/>
	<path style="fill:#B45573;" d="M165.579,381.042c-2.305-1.059-5.012,0.176-5.725,2.61l-10.202,34.839
		c-0.648,2.215,0.631,4.534,2.85,5.166l23.03,6.569c1.861,0.531,3.843-0.293,4.78-1.987l9.235-16.706
		c0.323-0.584,0.567-1.209,0.725-1.858l2.322-9.516c0.855-3.504-0.895-7.122-4.173-8.628L165.579,381.042z"/>
	<path style="fill:#B45573;" d="M328.88,146.617l0.811-22.084c0.078-2.128,1.874-3.785,4.002-3.692l33.466,1.464
		c2.338,0.102,4.041,2.256,3.6,4.555l-5.444,28.408c-0.42,2.192-2.615,3.564-4.769,2.982l-28.833-7.789
		C329.989,149.996,328.815,148.402,328.88,146.617z"/>
	<path style="fill:#B45573;" d="M397.892,301.608l0.811-22.084c0.078-2.128,1.874-3.785,4.002-3.692l33.466,1.464
		c2.338,0.102,4.041,2.256,3.6,4.555l-5.444,28.408c-0.42,2.192-2.615,3.564-4.769,2.982l-28.833-7.789
		C399.001,304.987,397.827,303.393,397.892,301.608z"/>
</g>
<g>
	<path style="fill:#A04B69;" d="M144.583,175.946l-5.648-47.002l-5.169-2.374c-2.456-1.128-5.341,0.187-6.1,2.781l-10.87,37.12
		c-0.691,2.36,0.672,4.831,3.037,5.505l24.538,6.999c0.6,0.171,1.202,0.17,1.791,0.092
		C145.354,178.227,144.733,177.194,144.583,175.946z"/>
	<path style="fill:#A04B69;" d="M266.215,134.185c-0.4-0.747-0.641-1.525-0.86-2.297l-13.608,8.074
		c-2.438,1.447-3.232,4.603-1.768,7.031l15.192,25.202c1.228,2.037,3.699,2.957,5.96,2.219l14.144-4.614L266.215,134.185z"/>
	<path style="fill:#A04B69;" d="M235.753,208.329l-19.199,6.214c-3.146,1.018-4.655,4.592-3.191,7.557l20.954,42.435
		c1.332,2.698,4.606,3.794,7.294,2.444l8.963-4.504L235.753,208.329z"/>
	<path style="fill:#A04B69;" d="M127.18,358.041l7.018-51.044c0.206-1.493,1.02-2.678,2.065-3.578l-2.879-2.107
		c-2.515-1.841-6.078-1.02-7.534,1.736l-20.841,39.438c-1.325,2.507-0.355,5.613,2.162,6.92l20.125,10.455
		C127.19,359.269,127.094,358.67,127.18,358.041z"/>
	<path style="fill:#A04B69;" d="M175.272,427.363l-3.646-40.941c-0.077-0.866,0.143-1.655,0.484-2.381l-6.531-2.999
		c-2.305-1.059-5.013,0.176-5.725,2.61l-10.202,34.839c-0.648,2.215,0.631,4.534,2.85,5.167l23.03,6.568
		c0.417,0.119,0.839,0.147,1.255,0.136C175.964,429.598,175.379,428.569,175.272,427.363z"/>
	<path style="fill:#A04B69;" d="M410.212,283.922c-0.938-2.603,0.423-5.472,3.032-6.392l3.124-1.101l-13.664-0.598
		c-2.128-0.093-3.924,1.564-4.002,3.692l-0.811,22.084c-0.065,1.785,1.109,3.379,2.834,3.845l19.107,5.162L410.212,283.922z"/>
	<path style="fill:#A04B69;" d="M350.845,153.047l-5.284-28.199c-0.233-1.244-0.055-2.451,0.364-3.473l-12.232-0.535
		c-2.128-0.093-3.924,1.564-4.002,3.692l-0.811,22.084c-0.065,1.785,1.109,3.379,2.834,3.845l20.787,5.616
		C351.705,155.365,351.086,154.327,350.845,153.047z"/>
	<path style="fill:#A04B69;" d="M147.705,252.58l19.744-41.162c-1.056-0.392-2.268-0.377-3.362,0.193l-32.221,16.78
		c-2.049,1.066-2.836,3.597-1.755,5.638l11.219,21.178c0.906,1.712,2.874,2.572,4.746,2.074l1.365-0.363
		C146.996,255.535,147.028,253.994,147.705,252.58z"/>
</g>
<g>
	<path style="fill:#B99B88;" d="M137.133,213.613c11.544,21.09,3.805,47.546-17.286,59.09l-2.752-15.206
		c-1.058-5.848-7.535-8.94-12.748-6.087l-11.7,6.404c-4.139,2.265-9.328,0.822-11.703-3.254l-8.77-15.051
		c-2.467-4.234-0.956-9.668,3.343-12.021l12.109-6.628c5.213-2.853,6.099-9.975,1.743-14.019l-11.326-10.514
		C99.134,184.784,125.589,192.523,137.133,213.613z"/>
	<path style="fill:#B99B88;" d="M197.069,100.481c22.148-10.611,48.704-1.258,59.314,20.89l-15.661,1.968
		c-6.023,0.757-9.534,7.192-6.911,12.666l5.887,12.287c2.082,4.346,0.324,9.56-3.965,11.757l-15.835,8.114
		c-4.454,2.282-9.914,0.441-12.076-4.072l-6.092-12.716c-2.623-5.474-9.838-6.77-14.202-2.551l-11.348,10.972
		C165.569,137.647,174.921,111.091,197.069,100.481z"/>
</g>
<path d="M437.02,74.98C388.667,26.629,324.38,0,256,0S123.333,26.629,74.98,74.98C26.629,123.333,0,187.62,0,256
	s26.629,132.667,74.98,181.02C123.333,485.371,187.62,512,256,512s132.667-26.629,181.02-74.98C485.371,388.667,512,324.38,512,256
	S485.371,123.333,437.02,74.98z M426.413,426.413C380.894,471.932,320.374,497,256,497s-124.894-25.068-170.413-70.587
	S15,320.374,15,256S40.068,131.106,85.587,85.587S191.626,15,256,15s124.894,25.068,170.413,70.587S497,191.626,497,256
	S471.932,380.894,426.413,426.413z"/>
<path d="M436.499,269.803l-33.467-1.464c-3.037-0.139-5.946,0.931-8.183,2.995s-3.529,4.875-3.641,7.915l-0.811,22.084l0,0
	c-0.194,5.304,3.249,9.976,8.373,11.36l0.522,0.141l-26.786,9.501c0.989-1.881,1.962-3.784,2.915-5.708
	c1.84-3.711,0.322-8.211-3.389-10.051s-8.211-0.322-10.051,3.389c-13.314,26.86-31.581,51.173-42.744,61.308
	c-50.828,46.147-91.404,30.622-107.14,21.253l7.18-6.519c3.841,0.698,9.143,1.36,15.468,1.359c6.146,0,13.249-0.625,20.888-2.448
	c39.249-9.367,61.686-42.555,73.596-68.747c4.051-8.909,8.391-23.539,11.627-40.548l37.27-33.838
	c1.833,11.136,0.24,24.696-4.773,40.483c-1.253,3.948,0.931,8.165,4.878,9.418c0.755,0.24,1.52,0.354,2.272,0.354
	c3.18,0,6.132-2.04,7.146-5.232c6.527-20.555,7.879-38.323,4.086-52.996c0.081-0.028,0.162-0.045,0.242-0.074l12.816-4.621
	c0.554-0.201,0.992-0.023,1.26,0.161c0.269,0.184,0.592,0.526,0.606,1.116l0.383,15.779c0.058,2.41,1.272,4.645,3.261,6.007
	c1.265,0.866,2.744,1.311,4.237,1.311c0.856,0,1.717-0.146,2.543-0.445c13.058-4.708,23.5-14.219,29.405-26.782
	s6.563-26.672,1.854-39.73c-4.708-13.058-14.22-23.501-26.782-29.405c-4.773-2.243-9.769-3.724-14.846-4.447l0.275-24.926
	c0.032-2.935-1.654-5.615-4.31-6.865s-5.8-0.833-8.041,1.062c-3.399,2.873-10.783,7.831-17.146,9.602l0.63-3.285
	c0.62-3.238-0.197-6.578-2.241-9.164s-5.105-4.151-8.398-4.295l-33.467-1.464c-3.038-0.141-5.946,0.931-8.183,2.995
	c-2.236,2.063-3.529,4.875-3.641,7.916l-0.811,22.084c-0.022,0.612,0.009,1.215,0.08,1.806c-1.386-1.214-3.155-1.862-4.969-1.854
	l-11.107-27.031c3.637-13.698-0.032-27.888-10.709-41.223c-8.101-10.118-17.504-16.251-17.901-16.507
	c-1.951-1.262-4.379-1.547-6.57-0.772c-2.191,0.774-3.9,2.521-4.626,4.729c-6.159,18.735-18.16,27.405-23.652,30.522
	c-1.83-1.107-3.729-2.114-5.701-2.995c-3.782-1.689-8.217,0.007-9.907,3.79c-1.689,3.782,0.007,8.217,3.79,9.907
	c4.761,2.126,8.976,5.218,12.407,9.038l-3.608,0.396c-5.224,0.573-9.888,3.645-12.477,8.218c-2.589,4.572-2.824,10.152-0.628,14.927
	l5.692,12.378c0.318,0.691,0.032,1.496-0.65,1.832l-15.96,7.864c-0.437,0.215-0.83,0.153-1.082,0.063
	c-0.253-0.09-0.597-0.29-0.8-0.731l-5.892-12.81c-2.195-4.774-6.585-8.228-11.742-9.238c-5.159-1.011-10.525,0.532-14.359,4.125
	l-2.65,2.482c-2.037-15.629,6.158-31.459,21.212-38.382c0.916-0.421,1.857-0.809,2.798-1.153c3.891-1.421,5.893-5.727,4.472-9.618
	s-5.73-5.893-9.618-4.472c-1.32,0.482-2.639,1.025-3.92,1.615c-16.273,7.484-26.844,22.372-29.558,38.842l-26.855-12.333
	c-3.152-1.448-6.77-1.453-9.926-0.014c-3.157,1.438-5.526,4.173-6.502,7.503l-10.87,37.121c-0.9,3.074-0.543,6.311,1.003,9.115
	s4.095,4.832,7.174,5.71l1.639,0.468l-2.899,6.955c-1.065-0.389-2.141-0.757-3.24-1.079c-13.083-3.827-26.875-2.331-38.832,4.214
	c-2.115,1.158-3.544,3.261-3.842,5.654c-0.297,2.393,0.573,4.782,2.34,6.422l11.326,10.513c0.3,0.279,0.427,0.627,0.376,1.034
	s-0.258,0.712-0.618,0.909l-12.109,6.628c-3.87,2.118-6.651,5.625-7.833,9.875s-0.609,8.689,1.611,12.5l8.77,15.051
	c3.627,6.225,10.645,9.144,17.318,7.72c-0.513,3.852-0.781,8.264-0.522,13.079c0.49,9.071-12.396,14.049-12.494,14.087
	c-2.218,0.814-3.923,2.627-4.6,4.891s-0.248,4.715,1.16,6.614c7.045,9.508,21.659,15.012,31.739,17.82l-8.686,16.437
	c-1.582,2.992-1.896,6.419-0.888,9.649c1.009,3.231,3.218,5.87,6.223,7.431l26.112,13.565c1.861,0.967,3.859,1.434,5.835,1.434
	c3.588,0,7.101-1.542,9.572-4.439l1.35-1.583l6.142,16.308c-0.021,0.066-0.049,0.129-0.069,0.196l-10.202,34.839
	c-0.879,3.003-0.531,6.167,0.98,8.907c1.512,2.74,4.001,4.722,7.01,5.58l23.03,6.569c1.075,0.307,2.161,0.454,3.23,0.454
	c4.154,0,8.069-2.227,10.169-6.025l5.6-10.131c8.44,7.98,20.472,16.279,36.804,20.995c0.695,0.201,1.396,0.296,2.084,0.296
	c3.256,0,6.253-2.137,7.202-5.421c1.149-3.979-1.145-8.137-5.125-9.287c-20.292-5.86-32.703-18.579-38.882-26.713
	c1.04-0.07,2.05-0.362,2.968-0.84c5.105,3.819,18.191,12.344,37.001,15.623c5.194,0.905,10.284,1.324,15.259,1.324
	c33.095-0.001,61.014-18.522,79.533-35.335c8.221-7.463,20.132-21.893,31.601-40.019l44.697-15.855
	c-4.102,16.88-17.886,36.181-39.882,55.527c-22.942,20.179-49.752,35.988-64.377,41.176c-13.685,4.854-26.748,7.624-38.827,8.233
	c-4.137,0.209-7.322,3.731-7.113,7.868c0.202,4.008,3.516,7.123,7.484,7.123c0.127,0,0.255-0.003,0.384-0.009
	c13.533-0.683,28.03-3.736,43.086-9.078c15.978-5.668,44.902-22.619,69.269-44.05c20.565-18.087,44.793-45.378,46.188-74.373
	l5.771,1.559c0.967,0.262,1.958,0.39,2.947,0.39c2.11,0,4.205-0.587,6.02-1.722c2.665-1.667,4.533-4.393,5.124-7.479l5.445-28.409
	c0.62-3.237-0.196-6.577-2.24-9.163S439.792,269.948,436.499,269.803z M137.814,295.26c-0.059-0.043-0.123-0.077-0.183-0.119
	l-0.604-26.661c1.954-2.195,3.695-4.542,5.225-7.008c1.769,1.098,3.814,1.706,5.931,1.706c1.048,0,2.111-0.146,3.163-0.448
	l14.863-4.269l-2.101,4.066c-1.419,2.747-1.678,5.88-0.729,8.823c0.949,2.943,2.99,5.335,5.748,6.736l0.458,0.233
	c-0.168,1.889,0.372,3.792,1.569,5.309l9.775,12.394c0.365,0.463,0.335,0.933,0.246,1.246s-0.312,0.728-0.867,0.928l-13.265,4.783
	c-3.724,1.343-6.757,3.917-8.683,7.317L137.814,295.26z M196.091,197.866c0.439,0.052,0.879,0.08,1.318,0.08
	c3.188,0,6.313-1.354,8.534-3.908l0.211-0.243l10.209,12.927l-2.119,0.686c-3.574,1.157-6.462,3.806-7.924,7.267
	c-1.461,3.46-1.346,7.377,0.318,10.746l6.618,13.402l-16.084-11.546c-2.721-1.953-6.147-2.626-9.406-1.843
	c-1.716,0.412-3.285,1.214-4.617,2.308l-4.056-10.968L196.091,197.866z M291.556,125.064l12.608,30.684l-33.552,10.947
	l-12.967-21.511L291.556,125.064z M275.754,311.433c-5.706,12.549-19.086,19.308-32.251,17.118
	c1.016-6.669,0.739-13.608-0.994-20.454l35.845-11.107C278.695,301.802,277.882,306.755,275.754,311.433z M236.741,294.18
	c-5.467-9.165-13.52-16.212-22.847-20.519l10.012-11.958c0.14-0.167,0.262-0.347,0.392-0.521l3.295,6.673
	c1.536,3.11,4.192,5.43,7.481,6.531c1.349,0.452,2.736,0.676,4.117,0.676c1.987,0,3.961-0.464,5.789-1.383l13.267-6.667
	c0.392,2.224,1.774,4.241,3.919,5.358c4.813,2.504,8.677,6.129,11.431,10.388L236.741,294.18z M185.023,269.337l-5.98-3.037
	l12.654-24.487l18.301,13.137l-11.936,14.255C193.78,268.705,189.404,268.731,185.023,269.337z M275.153,226.654l-5.493-22.591
	c-0.34-1.398-0.921-2.712-1.685-3.905l3.11-18.09c0.794-0.1,1.588-0.267,2.374-0.523l26.076-8.508L275.153,226.654z
	 M255.613,209.784l9.05,37.217l-24.548,12.336l-18.961-38.4L255.613,209.784z M164.924,221.706l7.193,19.452l-22.112,6.351
	l-1.219-2.195c1.087-5,1.432-10.167,0.979-15.33L164.924,221.706z M173.499,324.517c-0.19-0.622-0.426-1.227-0.708-1.81
	l-1.486-3.799c-0.177-0.453-0.082-0.839,0.029-1.083c0.111-0.244,0.339-0.57,0.796-0.735l13.264-4.783
	c4.943-1.782,8.757-5.863,10.202-10.916s0.364-10.532-2.891-14.658l-2.249-2.851c15.754-0.691,30.823,8.808,36.443,24.394
	c3.349,9.289,2.88,19.326-1.319,28.262c-2.597,5.525-6.428,10.221-11.17,13.792l-0.089-3.647c-0.127-5.253-2.792-10.162-7.129-13.13
	c-2.758-1.888-6.002-2.861-9.271-2.861c-1.871,0-3.75,0.319-5.548,0.968l-12.817,4.621c-0.712,0.257-1.493-0.095-1.77-0.804
	L173.499,324.517z M225.591,371.879l11.065-24.332c0.888-1.482,1.705-3.004,2.441-4.565c3.11,0.66,6.235,0.988,9.335,0.988
	c17.175-0.001,33.48-9.844,40.976-26.329c8.898-19.567,2.588-42.333-14.242-54.783l43.261-95.134
	c23.831,36.932,8.262,117.799-2.852,142.24C287.158,372.457,243.753,374.26,225.591,371.879z M343.767,196.042l19.807,4.817
	c-0.126,2.308,0.227,4.636,1.097,6.859l6.481,16.571c0.341,0.871,0.76,1.686,1.222,2.462l-28.021,25.44
	c0.588-5.432,1.031-10.943,1.286-16.45C346.202,223.582,345.955,209.639,343.767,196.042z M434.235,191.624
	c3.349,9.289,2.88,19.326-1.319,28.262c-2.597,5.526-6.428,10.221-11.17,13.792l-0.089-3.647
	c-0.127-5.253-2.792-10.162-7.128-13.129c-2.758-1.888-6.003-2.862-9.272-2.862c-1.871,0-3.749,0.319-5.548,0.968l-12.816,4.621
	c-0.718,0.259-1.493-0.095-1.771-0.803l-6.481-16.57c-0.177-0.453-0.082-0.839,0.029-1.083c0.111-0.245,0.339-0.57,0.796-0.735
	l13.264-4.782c4.943-1.782,8.757-5.862,10.202-10.915s0.364-10.532-2.89-14.659l-2.259-2.865c5.926-0.275,11.876,0.894,17.402,3.491
	C424.12,174.906,430.886,182.334,434.235,191.624z M337.051,128.495l25.545,1.118l-3.903,20.368l-22.21-6L337.051,128.495z
	 M358.59,165.491c0.967,0.262,1.958,0.39,2.947,0.39c2.11,0,4.205-0.587,6.02-1.721c2.665-1.666,4.532-4.391,5.125-7.479
	l1.825-9.523c6.114-0.306,12.229-2.666,17.331-5.367l-0.121,10.97c-3.332,0.509-6.64,1.346-9.882,2.515
	c-2.268,0.817-4.004,2.676-4.667,4.994s-0.171,4.813,1.322,6.706l9.774,12.394c0.365,0.463,0.335,0.933,0.246,1.246
	c-0.089,0.312-0.312,0.727-0.867,0.927l-13.264,4.783c-0.855,0.308-1.663,0.697-2.441,1.13l-31.905-7.76
	c-2.44-7.964-5.797-15.462-10.328-22.01c0.018,0.005,0.035,0.012,0.053,0.017L358.59,165.491z M275.895,79.923
	c2.315,2.11,4.898,4.734,7.3,7.773c5.714,7.229,8.553,14.376,8.525,21.343c-1.898,0.15-3.76,0.717-5.438,1.712l-24.068,14.28
	c0.92-1.984,0.943-4.28,0.021-6.285c-2.137-4.647-4.937-8.904-8.267-12.677C260.624,101.372,269.454,93.176,275.895,79.923z
	 M239.488,131.755c0.161-0.283,0.475-0.634,1.06-0.698l14.121-1.55l-6.75,4.005c-2.48,1.471-4.332,3.696-5.339,6.352l-3.145-6.84
	C239.189,132.489,239.328,132.039,239.488,131.755z M237.479,166.957c4.783-2.357,7.891-6.674,8.846-11.496l10.981,18.216
	l-3.609,20.994c-0.19,0.052-0.383,0.091-0.572,0.152l-21.54,6.972l-15.412-19.515l7.351-8.448L237.479,166.957z M204.274,173.106
	l-7.734,8.888l-13.681-7.278l10.856-20.065l5.664,12.316C200.511,169.425,202.192,171.508,204.274,173.106z M133.864,134.869
	l24.118,11.076l-13.903,25.149l-19.218-5.481L133.864,134.869z M133.937,183.8l8.375,2.389c1.101,0.314,2.212,0.465,3.308,0.465
	c4.251,0,8.257-2.279,10.406-6.166l11.058-20.003c0.236,0.564,0.468,1.129,0.725,1.688c0.644,1.401,1.697,2.545,2.99,3.312
	l-2.888,5.337c-1.448,2.677-1.762,5.755-0.883,8.669s2.843,5.306,5.529,6.734l9.355,4.977l-12.737,14.169
	c-2.61-0.538-5.343-0.158-7.718,1.138l-15.393,8.406c-0.69-1.656-1.47-3.293-2.351-4.902c-3.518-6.428-8.278-11.901-13.952-16.193
	L133.937,183.8z M87.424,250.784l-8.77-15.051c-0.211-0.364-0.182-0.707-0.12-0.931s0.214-0.533,0.583-0.735l12.109-6.628
	c4.557-2.494,7.661-7.061,8.302-12.216c0.641-5.156-1.249-10.344-5.057-13.878l-2.393-2.221c5.578-1.088,11.372-0.834,16.983,0.807
	c9.238,2.703,16.871,8.84,21.492,17.284c7.704,14.074,5.002,31.088-5.5,42.141l-0.578-3.195c-0.925-5.112-4.277-9.5-8.965-11.739
	c-2.205-1.053-4.594-1.577-6.98-1.577c-2.687,0-5.371,0.665-7.784,1.985l-11.7,6.404C88.468,251.552,87.755,251.353,87.424,250.784z
	 M94.38,301.491c6.561-5.027,12.419-12.758,11.858-23.165c-0.527-9.768,1.706-17.389,2.763-20.384
	c0.016,0.007,0.031,0.009,0.047,0.017c0.37,0.177,0.595,0.471,0.668,0.874l2.752,15.207c0.429,2.373,1.973,4.394,4.148,5.433
	c1.023,0.489,2.128,0.732,3.231,0.732c0.824,0,1.644-0.149,2.432-0.419l0.356,15.694c-1.398,1.085-2.569,2.464-3.416,4.067
	l-4.95,9.367C108.437,307.458,100.448,304.95,94.38,301.491z M135.055,355.441l-22.29-11.579l18.423-34.863l26.771,19.592
	L135.055,355.441z M165.039,343.405c3.958,6.65,12.069,9.705,19.605,6.987l12.817-4.622c0.554-0.2,0.99-0.023,1.259,0.161
	c0.268,0.184,0.591,0.526,0.606,1.116l0.384,15.78c0.059,2.41,1.272,4.646,3.261,6.007c1.265,0.866,2.744,1.311,4.237,1.311
	c0.856,0,1.717-0.146,2.543-0.445c0.145-0.052,0.284-0.114,0.429-0.167l-2.116,4.653c-0.337,0.74-0.545,1.522-0.629,2.314
	l-7.938,7.207l-5.724,2.03l-25.065-11.511c-0.956-0.439-1.958-0.726-2.974-0.893l-8.033-21.328L165.039,343.405z M175.033,422.285
	l-17.237-4.917l8.169-27.896l10.312,4.736c-0.076,0.154-0.155,0.305-0.22,0.465c-0.81,1.974-0.74,4.199,0.19,6.118
	c0.204,0.421,1.999,4.022,5.677,9.028L175.033,422.285z M427.704,304.972l-22.21-6l0.568-15.486l25.545,1.118L427.704,304.972z"/>
<g>
</g>
<g>
</g>
<g>
</g>
<g>
</g>
<g>
</g>
<g>
</g>
<g>
</g>
<g>
</g>
<g>
</g>
<g>
</g>
<g>
</g>
<g>
</g>
<g>
</g>
<g>
</g>
<g>
</g>
</svg>
