<svg id="Capa_1" enable-background="new 0 0 511.979 511.979" height="512" viewBox="0 0 511.979 511.979" width="512" xmlns="http://www.w3.org/2000/svg"><g><g><path d="m465.309 317.714h-417.775l-16.877 15.917v37.4l17.297 18.7h418.864l14.839-18.7v-37.4z" fill="#fcf0b6"/><path d="m464.845 387.245h-414.591l-19.597 21.186v37.4l20.486 16.23h416.876l13.638-16.23v-37.4z" fill="#8aadde"/><g><g id="XMLID_397_"><g><path d="m30.657 218.201v78.03l17.512 13.98h414.171l19.317-13.98v-78.03z" fill="#ea9a98"/><path d="m91.667 317.714h-44.133l-16.877 15.917v37.4l17.297 18.7h43.713z" fill="#fbe88c"/><path d="m84.351 218.201h-53.694v78.03l17.512 13.98h43.498v-12.779c0-7.58 5.664-14.045 13.202-14.847 3.674-.391 7.371-.588 11.074-.588 11.312 0 22.49 1.813 33.223 5.392l.324.107c15.839 5.28 32.336 7.957 49.033 7.957 15.865 0 31.58-2.423 46.709-7.202l21.921-6.961c4.582-1.455 9.257 1.965 9.257 6.772v22.148h98.539v-11.659c0-13.372 12.28-23.372 25.375-20.664l45.25 9.359c4.68.965 9.454 1.453 14.19 1.453 7.648 0 15.003-1.258 21.894-3.547v-60.82-6.131z" fill="#e5827f"/><path d="m30.657 296.231h451v37.4h-451z" fill="#f3af90"/><path d="m91.667 434.602v-47.358h-41.413l-19.597 21.186v37.4l20.486 16.23h58.014c-10.33-4.826-17.49-15.303-17.49-27.458z" fill="#5f90d3"/><path d="m374.948 362.975v-45.26h-98.539v45.26c0 9.86 2.922 19.045 7.931 26.756h82.678c5.008-7.711 7.93-16.896 7.93-26.756z" fill="#fbe88c"/><path d="m30.657 371.031h451v37.4h-451z" fill="#b1f5d5"/><path d="m481.657 445.831v24.61c0 7.47-6.06 13.53-13.53 13.53h-423.94c-7.47 0-13.53-6.06-13.53-13.53v-24.61z" fill="#d2b3ea"/></g></g><circle cx="272.771" cy="122.409" fill="#e5827f" r="51.651"/><circle cx="204.339" cy="122.409" fill="#ea9a98" r="51.651"/><path d="m189.161 119.112c0-20.421 11.858-38.09 29.059-46.473-4.417-1.23-9.072-1.882-13.881-1.882-28.526 0-51.651 23.125-51.651 51.651s23.125 51.651 51.651 51.651c8.105 0 15.771-1.871 22.597-5.198-21.784-6.063-37.775-26.032-37.775-49.749z" fill="#e5827f"/></g><path d="m277.079 371.031c2.795 16.914 14.226 30.949 29.604 37.4h37.993c15.378-6.451 26.809-20.486 29.604-37.4z" fill="#91f2c5"/><path d="m276.409 296.231h98.539v37.4h-98.539z" fill="#f09971"/><path d="m7.5 220.759c0 30.885 29.445 53.264 59.203 44.993l14.415-4.006c24.944-6.932 51.39-6.262 75.951 1.925l.325.108c26.031 8.677 54.14 8.899 80.305.633l29.057-9.18c17.164-5.423 34.653 7.393 34.653 25.393v82.35c0 13.404 10.866 24.27 24.27 24.27 13.404 0 24.27-10.866 24.27-24.27v-88.286c0-16.869 15.485-29.488 32.007-26.082l68.665 14.154c27.802 5.731 53.859-15.503 53.859-43.889 0-24.749-20.063-44.812-44.812-44.812h-405.469c-25.791 0-46.699 20.908-46.699 46.699z" fill="#f9f7f7"/><g><path d="m332.727 329.453v-51.943c0-33.062-32.121-56.6-63.647-46.64-26.184 8.272-54.313 8.058-80.368-.613l-.389-.13c-24.543-8.167-50.965-8.83-75.887-1.904l-14.416 4.007c-29.758 8.27-59.203-14.108-59.203-44.993 0-3.797.476-7.492 1.331-11.026-18.918 5.967-32.648 23.658-32.648 44.548 0 30.885 29.445 53.263 59.203 44.993l14.35-3.988c24.965-6.938 51.431-6.274 76.016 1.907l.325.108c26.055 8.67 54.184 8.885 80.368.613l28.994-9.16c17.164-5.423 34.653 7.393 34.653 25.393v82.35c0 13.404 10.866 24.269 24.269 24.269 13.404 0 24.27-10.866 24.27-24.27v-10.296c-9.965-3.019-17.221-12.273-17.221-23.225z" fill="#f2eae7"/></g><path d="m30.657 296.231h61.01v37.4h-61.01z" fill="#f09971"/><path d="m30.657 371.031h61.01v37.4h-61.01z" fill="#91f2c5"/><path d="m121.966 464.901c-12.765 0-23.678-7.898-28.14-19.07h-63.169v24.61c0 7.47 6.06 13.53 13.53 13.53h423.94c7.47 0 13.53-6.06 13.53-13.53v-5.54z" fill="#c39be2"/></g><path d="m459.667 166.561h-36.584c-4.142 0-7.5 3.357-7.5 7.5s3.358 7.5 7.5 7.5h36.584c20.574 0 37.312 16.738 37.312 37.312 0 11.266-5.009 21.809-13.742 28.925-8.733 7.115-20.069 9.894-31.102 7.618l-68.666-14.154c-10.094-2.08-20.463.461-28.451 6.971s-12.57 16.152-12.57 26.457v88.286c0 9.247-7.523 16.77-16.77 16.77s-16.77-7.522-16.77-16.77v-82.35c0-10.996-5.087-21.03-13.957-27.529-8.87-6.5-19.971-8.328-30.455-5.015l-29.057 9.18c-24.817 7.84-50.984 7.634-75.674-.597l-.325-.108c-26.075-8.691-53.852-9.395-80.331-2.036l-14.415 4.006c-11.907 3.31-24.376.919-34.214-6.558-9.837-7.478-15.48-18.853-15.48-31.21 0-21.614 17.584-39.198 39.199-39.198h336.922c4.142 0 7.5-3.357 7.5-7.5s-3.358-7.5-7.5-7.5h-79.048c12.169-10.839 19.849-26.611 19.849-44.151 0-32.616-26.535-59.151-59.151-59.151-12.33 0-24.267 3.855-34.23 10.937-7.736-5.504-16.842-9.191-26.703-10.445v-4.769c0-7.146 2.783-13.866 7.836-18.919l6.749-6.748c2.929-2.929 2.929-7.678 0-10.606-2.929-2.93-7.678-2.929-10.607-.001l-6.749 6.748c-7.887 7.887-12.23 18.373-12.23 29.526v4.748c-17.226 2.179-32.653 11.809-42.238 26.681-2.244 3.482-1.241 8.124 2.241 10.367 3.48 2.244 8.123 1.242 10.367-2.24 8.184-12.698 22.064-20.279 37.13-20.279 24.345 0 44.151 19.807 44.151 44.151s-19.806 44.151-44.151 44.151c-23.386 0-42.745-18.273-44.072-41.601-.235-4.136-3.776-7.281-7.914-7.062-4.136.235-7.297 3.778-7.062 7.914.924 16.245 8.38 30.65 19.721 40.749h-110.811c-29.886 0-54.199 24.313-54.199 54.198 0 17.086 7.802 32.813 21.404 43.151.575.437 1.166.844 1.753 1.255v205.273c0 11.596 9.434 21.029 21.029 21.029h423.94c11.596 0 21.029-9.434 21.029-21.029v-208.38c1.212-.83 2.405-1.696 3.556-2.633 12.244-9.978 19.267-24.758 19.267-40.553.001-28.845-23.466-52.311-52.311-52.311zm-142.745-44.152c0 24.345-19.806 44.151-44.151 44.151-8.142 0-16.056-2.249-22.923-6.428 8.513-10.244 13.641-23.393 13.641-37.723 0-14.329-5.124-27.481-13.632-37.729 6.865-4.176 14.776-6.423 22.914-6.423 24.345.001 44.151 19.808 44.151 44.152zm40.526 240.566v-21.843h116.708v22.398h-116.722c.003-.185.014-.369.014-.555zm116.709 75.352h-435.999v-22.398h435.999zm0-112.195h-116.709v-22.399h116.708v22.399zm-148.478 68.612c11.868 0 22.231-6.546 27.685-16.214h120.793v22.398h-435.999v-22.398h259.836c5.454 9.668 15.816 16.214 27.685 16.214zm-31.77-68.612h-111.894c-4.142 0-7.5 3.357-7.5 7.5s3.358 7.5 7.5 7.5h111.895v21.843c0 .186.011.37.014.556h-255.766v-22.398h111.895c4.142 0 7.5-3.357 7.5-7.5s-3.358-7.5-7.5-7.5h-111.895v-22.399h255.751zm-225.198-53.153 14.415-4.006c23.592-6.558 48.34-5.93 71.571 1.813l.325.108c27.712 9.237 57.082 9.47 84.936.669l29.057-9.18c5.879-1.855 12.099-.832 17.07 2.811 4.971 3.644 7.823 9.268 7.823 15.431v8.107h-255.75v-16.162c9.777 3.046 20.315 3.253 30.553.409zm399.416 203.489h-423.94c-3.325 0-6.029-2.705-6.029-6.029v-17.111h435.999v17.111c0 3.324-2.705 6.029-6.03 6.029zm6.03-187.735h-116.709v-14.044c0-5.775 2.568-11.181 7.045-14.829s10.291-5.073 15.947-3.907l68.666 14.154c8.446 1.74 17.014 1.355 25.05-.964v19.59z"/></g></svg>