<svg height="512pt" viewBox="0 0 512 512.00009" width="512pt" xmlns="http://www.w3.org/2000/svg"><path d="m320.640625 146.003906c-9.898437-33.105468-11.171875-129.039062 22.609375-137.835937 32.863281-8.554688 96.761719 67.175781 106.660156 100.28125 9.621094 32.1875-18.433594 49.988281-49.398437 58.050781-30.96875 8.0625-70.25 11.691406-79.871094-20.496094zm0 0" fill="#fccd7f"/><path d="m433.480469 217.820312c-37.28125 6.300782-128.09375-15.414062-137.183594-58.808593-8.839844-42.214844 66.582031-93.996094 103.867187-100.296875 36.25-6.125 55.546876 31.796875 63.875 71.574218 8.332032 39.773438 5.695313 81.40625-30.558593 87.53125zm0 0" fill="#eab765"/><path d="m464.042969 130.289062c-6.246094-29.816406-18.652344-58.589843-39.742188-68.550781 7.457031 12.746094 12.679688 28.660157 16.078125 44.886719 8.328125 39.777344 5.691406 81.40625-30.558594 87.53125-25.929687 4.382812-77.75-4.789062-109.964843-25.382812 19.382812 36.851562 99.253906 54.855468 133.628906 49.046874 36.25-6.125 38.886719-47.757812 30.558594-87.53125zm0 0" fill="#d9ab5e"/><path d="m406.429688 351.132812c-50.382813-14.828124-150.855469-95.386718-136.160157-152.875 14.292969-55.921874 139.652344-72.726562 190.035157-57.898437 48.988281 14.417969 50.339843 71.476563 36.871093 124.167969-13.46875 52.695312-41.757812 101.023437-90.746093 86.605468zm0 0" fill="#fccd7f"/><path d="m471.660156 144.878906c13.140625 25.050782 10.679688 61.453125 1.855469 95.984375-13.472656 52.695313-41.761719 101.023438-90.75 86.605469-22.105469-6.503906-53.851563-25.664062-81.285156-49.976562 30.671875 35 76.046875 65.132812 104.949219 73.640624 48.984374 14.417969 77.277343-33.910156 90.746093-86.605468 12.335938-48.261719 12.230469-100.179688-25.515625-119.648438zm0 0" fill="#fbc56d"/><path d="m146.003906 320.640625c-33.105468-9.898437-129.039062-11.175781-137.832031 22.609375-8.558594 32.863281 67.175781 96.761719 100.277344 106.65625 32.191406 9.625 49.992187-18.429688 58.050781-49.398438 8.0625-30.964843 11.691406-70.246093-20.496094-79.867187zm0 0" fill="#fccd7f"/><path d="m217.820312 433.480469c6.300782-37.28125-15.414062-128.097657-58.808593-137.183594-42.214844-8.839844-93.996094 66.582031-100.296875 103.863281-6.125 36.253906 31.796875 55.550782 71.574218 63.878906 39.777344 8.328126 81.40625 5.691407 87.53125-30.558593zm0 0" fill="#eab765"/><path d="m168.777344 299.855469c20.589844 32.214843 29.761718 84.03125 25.382812 109.964843-6.128906 36.25-47.757812 38.886719-87.535156 30.558594-16.222656-3.398437-32.140625-8.625-44.886719-16.078125 9.960938 21.089844 38.734375 33.496094 68.550781 39.738281 39.777344 8.332032 81.40625 5.691407 87.53125-30.558593 5.808594-34.371094-12.195312-114.242188-49.042968-133.625zm0 0" fill="#d9ab5e"/><path d="m351.132812 406.429688c-14.828124-50.382813-95.382812-150.855469-152.871093-136.160157-55.925781 14.292969-72.730469 139.648438-57.898438 190.035157 14.417969 48.984374 71.472657 50.339843 124.164063 36.871093 52.695312-13.46875 101.023437-41.761719 86.605468-90.746093zm0 0" fill="#fccd7f"/><path d="m351.132812 406.429688c-8.507812-28.902344-38.640624-74.277344-73.640624-104.949219 24.3125 27.433593 43.472656 59.179687 49.980468 81.285156 14.417969 48.988281-33.914062 77.277344-86.605468 90.75-34.53125 8.824219-70.933594 11.285156-95.988282-1.855469 19.46875 37.746094 71.386719 37.851563 119.648438 25.515625 52.695312-13.46875 101.023437-41.761719 86.605468-90.746093zm0 0" fill="#fbc56d"/><path d="m288.726562 459.460938c-44.59375-44.589844-119.433593-169.050782-59.242187-229.246094 54.679687-54.679688 185.386719 13.917968 229.980469 58.511718 43.355468 43.355469 11.136718 101.8125-28.894532 141.84375-40.027343 40.027344-98.488281 72.25-141.84375 28.890626zm0 0" fill="#eab765"/><path d="m459.464844 288.726562c-4.207032-4.207031-9.179688-8.625-14.78125-13.136718 29.339844 41.941406-.90625 94.445312-37.777344 131.316406-37.070312 37.074219-89.949219 67.441406-132 37.28125 4.792969 5.765625 9.453125 10.910156 13.820312 15.273438 43.355469 43.359374 101.8125 11.136718 141.84375-28.890626 40.027344-40.03125 72.25-98.488281 28.894532-141.84375zm0 0" fill="#d9ab5e"/><path d="m509.5 186.542969c-4.953125-23.472657-17.488281-40.339844-36.527344-49.375-5.210937-30.964844-18.515625-70.984375-47.597656-83.105469-18.34375-22.304688-56.007812-60.441406-84.015625-53.152344-32.871094 8.558594-35.777344 73.195313-33.859375 107.171875-12.507812 14.855469-22.527344 33.449219-18.542969 52.46875.039063.191407.082031.382813.125.570313-15.082031 10.992187-25.890625 25.25-27.527343 43.839844-30.933594 6.917968-51.113282 29.257812-58.609376 56.804687-17.761718 2.234375-31.328124 12.894531-41.8125 27.316406-19.125-4.316406-37.960937 5.710938-53.050781 18.417969-34.066406-1.925781-98.617187 1.011719-107.171875 33.859375-7.296875 28.039063 30.941406 65.75 53.15625 84.019531 12.121094 29.078125 52.132813 42.375 83.078125 47.585938 19.648438 41.855468 71.011719 43.769531 116.273438 34.46875 4.058593-.832032 6.671875-4.796875 5.839843-8.855469-.835937-4.054687-4.800781-6.667969-8.855468-5.835937-42.425782 8.714843-90.554688 7.207031-102.847656-34.554688-14.421876-49 3.25-167.941406 52.492187-180.632812-6.308594 61.742187 41.914063 145.75 83.375 187.210937 4.996094 4.996094 10.3125 9.183594 15.917969 12.546875-5.953125 2.707031-12.40625 5.21875-19.308594 7.515625-3.929688 1.308594-6.058594 5.554687-4.75 9.488281 1.046875 3.140625 3.976562 5.132813 7.117188 5.132813.785156 0 1.582031-.125 2.371093-.386719 12.164063-4.050781 23.105469-8.757812 32.570313-14.015625 15.25 4.183594 30.859375 2.953125 45.742187-1.585937 58.261719-17.777344 139.515625-102.089844 121.964844-166.121094 18.417969-33.136719 32.734375-91.53125 24.453125-130.796875zm-458.675781 216.070312c-24.421875-22.824219-38.570313-45.285156-35.394531-57.472656 3.71875-14.289063 35.945312-23.496094 77.742187-23.136719-18.222656 20.175782-39.8125 55.195313-42.347656 80.609375zm80.84375 54.050781c-62.925781-13.21875-68.085938-40.289062-65.558594-55.253906 5.734375-33.914062 51.226563-98.925781 86.34375-98.328125-23.328125 43.859375-29.890625 114.039063-20.785156 153.582031zm213.472656-441.234374c12.183594-3.179688 34.648437 10.96875 57.472656 35.390624-25.644531 2.566407-60.480469 24.171876-80.609375 42.351563-.359375-41.800781 8.847656-74.023437 23.136719-77.742187zm13.566406 453.683593c-25.28125 7.710938-47.042969 2.683594-64.675781-14.953125-49.519531-49.519531-112.085938-165.800781-59.242188-218.640625 48.320313-48.320312 172.417969 11.558594 219.371094 58.507813 58.464844 58.464844-38.960937 157.847656-95.453125 175.085937zm118.613281-169.765625c-23.941406-39.859375-129.601562-101.484375-200.359374-96.582031 4.339843-24.300781 33.621093-39.3125 57.082031-47.179687 9.398437-3.148438 4.648437-17.382813-4.765625-14.21875-9.726563 3.257812-18.46875 6.960937-26.195313 11.066406-.570312-35.058594 64.332031-80.578125 98.332031-86.324219 14.960938-2.527344 42.03125 2.632813 55.253907 65.558594-24.753907-5.691407-61.457031-5.199219-95.824219 1.484375-9.742188 1.894531-6.875 16.617187 2.863281 14.722656 34.421875-6.691406 72.390625-6.820312 94.480469-.320312 19.914062 5.863281 31.898438 19.628906 36.636719 42.082031 6.902343 32.730469-4.253907 80.597656-17.503907 109.710937zm0 0"/></svg>