<svg id="Capa_1" enable-background="new 0 0 512 512" height="512" viewBox="0 0 512 512" width="512" xmlns="http://www.w3.org/2000/svg"><g><g><g><path d="m365.803 168.962h-219.606c-12.202 0-22.621 8.808-24.651 20.84l-20.717 53.502-26.258 155.581 352.859 10-36.975-219.083c-2.031-12.032-12.45-20.84-24.652-20.84z" fill="#80e29e"/><path d="m370.455 179.801 36.974 219.084 14.546 10 15.454-10-26.257-155.581-20.717-63.503z" fill="#77d192"/><path d="m203.709 243.263c26.142 0 26.142 20 52.284 20 26.141 0 26.141-20 52.282-20 26.145 0 26.145 20 52.289 20 10.811 0 17.155-3.418 22.725-7.427 7.603-5.472 11.766-13.044 25.883-13.533l-18.717-62.502c-2.031-12.031-12.45-20.84-24.651-20.84h-229.607c-12.202 0-22.621 8.808-24.651 20.84l-10.717 63.502c24.457.846 25.037 19.959 50.6 19.959 26.139.001 26.139-19.999 52.28-19.999z" fill="#b87d72"/><path d="m370.455 179.801 12.832 76.032c7.602-5.471 13.769-12.041 27.885-12.529l-10.717-63.502c-2.031-12.031-12.45-20.84-24.651-20.84h-30c12.201 0 22.62 8.808 24.651 20.839z" fill="#ab695d"/><path d="m454.897 448.488h-407.794c-21.872 0-39.603-17.731-39.603-39.603 0-5.523 4.477-10 10-10h467c5.523 0 10 4.477 10 10 0 21.872-17.731 39.603-39.603 39.603z" fill="#bed9fd"/><path d="m494.5 398.885h-30c5.523 0 10 4.477 10 10 0 21.872-17.731 39.603-39.603 39.603h30c21.872 0 39.603-17.731 39.603-39.603 0-5.523-4.477-10-10-10z" fill="#92c3f7"/><path d="m280.115 124.846c0-18.841-5.274-33.115-24.115-33.115-2.223 0-4.397-.787-6.501-.381-15.732 3.035-27.614 16.879-27.614 33.497s11.882 30.461 27.614 33.497c2.105.406 4.278-.381 6.501-.381 18.841-.001 24.115-14.275 24.115-33.117z" fill="#fd8087"/><path d="m256 90.731c-2.224 0-4.395.22-6.5.626 15.731 3.036 27.615 16.871 27.615 33.489s-11.884 30.454-27.615 33.49c2.105.406 4.276.626 6.5.626 18.841 0 34.115-15.274 34.115-34.116s-15.274-34.115-34.115-34.115z" fill="#fe646f"/></g></g><g><path d="m494.5 406.385c1.379 0 2.5 1.121 2.5 2.5 0 17.702-14.401 32.103-32.103 32.103h-417.794c-17.702.001-32.103-14.401-32.103-32.103 0-1.379 1.122-2.5 2.5-2.5h169.855c4.142 0 7.5-3.357 7.5-7.5s-3.358-7.5-7.5-7.5h-103.912l12.997-77.009c.689-4.084-2.063-7.954-6.147-8.643-4.083-.689-7.954 2.062-8.644 6.147l-13.419 79.505h-50.73c-9.649 0-17.5 7.851-17.5 17.5 0 25.973 21.13 47.103 47.103 47.103h417.794c25.973 0 47.103-21.131 47.103-47.103 0-9.649-7.851-17.5-17.5-17.5h-50.73l-35.919-212.831c-2.65-15.698-16.128-27.092-32.047-27.092h-39.979c-4.143 0-7.5 3.357-7.5 7.5s3.357 7.5 7.5 7.5h39.979c8.572 0 15.829 6.136 17.256 14.588l9.415 55.787c-9.171 1.984-15.025 6.434-20.312 10.472-6.182 4.724-11.064 8.454-21.6 8.454-10.532 0-15.411-3.732-21.588-8.457-6.723-5.143-15.089-11.543-30.701-11.543-15.61 0-23.976 6.4-30.698 11.543-6.175 4.725-11.053 8.457-21.584 8.457s-15.409-3.731-21.585-8.457c-6.722-5.143-15.088-11.543-30.699-11.543-15.61 0-23.977 6.4-30.698 11.544-6.176 4.725-11.053 8.456-21.583 8.456-10.532 0-15.414-3.73-21.594-8.453-5.285-4.039-11.138-8.488-20.308-10.473l9.415-55.788c1.426-8.453 8.684-14.588 17.256-14.588h167.38c4.143 0 7.5-3.357 7.5-7.5s-3.357-7.5-7.5-7.5h-15.615c6.022-7.22 9.653-16.501 9.653-26.615 0-22.947-18.669-41.616-41.615-41.616-.338 0-.672.018-1.008.026-5.769-10.028-14.098-18.747-24.818-25.965-3.435-2.315-8.097-1.403-10.41 2.031-2.313 3.437-1.404 8.097 2.032 10.41 7.282 4.903 13.174 10.588 17.614 16.958-14.713 6.422-25.026 21.104-25.026 38.156 0 10.115 3.631 19.395 9.653 26.615h-87.841c-15.92 0-29.398 11.393-32.047 27.092l-17.046 101.012c-.689 4.084 2.063 7.954 6.147 8.644.422.071.842.105 1.257.105 3.593 0 6.768-2.591 7.386-6.253l5.133-30.412c5.564 1.368 9.288 4.209 13.699 7.58 6.725 5.139 15.094 11.535 30.702 11.535 15.61 0 23.976-6.4 30.698-11.543 6.176-4.726 11.053-8.457 21.584-8.457s15.409 3.732 21.584 8.457c6.722 5.142 15.088 11.543 30.699 11.543s23.977-6.4 30.699-11.544c6.175-4.725 11.053-8.456 21.583-8.456 10.532 0 15.411 3.732 21.588 8.457 6.723 5.142 15.089 11.543 30.701 11.543 15.61 0 23.981-6.396 30.707-11.535 4.413-3.371 8.138-6.213 13.704-7.581l23.583 139.737h-208.515c-4.142 0-7.5 3.357-7.5 7.5s3.358 7.5 7.5 7.5zm-265.116-281.538c0-14.676 11.94-26.616 26.616-26.616s26.615 11.94 26.615 26.616-11.939 26.615-26.615 26.615c-14.676.001-26.616-11.939-26.616-26.615z"/><path d="m167.953 369.939c3.707 0 6.93-2.748 7.427-6.522l8.494-64.555c.54-4.106-2.351-7.874-6.458-8.414-4.108-.546-7.874 2.351-8.414 6.457l-8.494 64.555c-.54 4.106 2.351 7.874 6.457 8.414.332.044.662.065.988.065z"/><path d="m344.046 369.939c.326 0 .656-.021.988-.065 4.106-.54 6.998-4.308 6.457-8.414l-8.494-64.555c-.54-4.107-4.31-7.004-8.414-6.457-4.106.54-6.998 4.308-6.457 8.414l8.494 64.555c.496 3.774 3.719 6.522 7.426 6.522z"/><path d="m263.5 362.438v-64.555c0-4.143-3.357-7.5-7.5-7.5-4.142 0-7.5 3.357-7.5 7.5v64.555c0 4.142 3.358 7.5 7.5 7.5 4.143 0 7.5-3.357 7.5-7.5z"/></g></g></svg>