<svg id="Capa_1" enable-background="new 0 0 512 512" height="512" viewBox="0 0 512 512" width="512" xmlns="http://www.w3.org/2000/svg"><g><g><g><path d="m70.037 29.728h363.804v32.332h-363.804z" fill="#d8ab8c"/></g><g><path d="m401.51 224.617v-200.951c0-8.928-7.238-16.166-16.166-16.166-8.928 0-16.166 7.238-16.166 16.166v200.951z" fill="#f3d332"/></g><g><path d="m369.178 224.617v-200.951c0-8.928-7.238-16.166-16.166-16.166-8.928 0-16.166 7.238-16.166 16.166v200.951z" fill="#dbb72b"/></g><g><path d="m336.846 224.617v-200.951c0-8.928-7.238-16.166-16.166-16.166-8.928 0-16.166 7.238-16.166 16.166v200.951z" fill="#f3d332"/></g><g><path d="m70.037 62.06h363.804v32.332h-363.804z" fill="#cf9875"/></g></g><g><g><path d="m235.325 145.017 7.05-4.52c4.728-3.031 11.039-1.34 13.618 3.649l3.846 7.439c1.711 3.31 5.193 5.32 8.915 5.147l8.365-.389c5.61-.261 10.23 4.359 9.969 9.969l-.389 8.365c-.173 3.722 1.837 7.204 5.147 8.915l7.439 3.846c4.989 2.579 6.68 8.89 3.649 13.618l-4.52 7.05c-2.011 3.137-2.011 7.157 0 10.294l4.52 7.05c3.031 4.728 1.34 11.039-3.649 13.618l-7.439 3.846c-3.31 1.711-5.32 5.193-5.147 8.915l.389 8.365c.261 5.61-4.359 10.23-9.969 9.969l-8.365-.389c-3.722-.173-7.204 1.837-8.915 5.147l-3.846 7.439c-2.579 4.989-8.89 6.68-13.618 3.649l-7.05-4.52c-3.137-2.011-7.157-2.011-10.294 0l-7.05 4.52c-4.728 3.031-11.039 1.34-13.618-3.649l-3.846-7.439c-1.711-3.31-5.193-5.32-8.915-5.147l-8.365.389c-5.61.261-10.23-4.359-9.969-9.969l.389-8.365c.173-3.722-1.837-7.204-5.147-8.915l-7.439-3.846c-4.989-2.579-6.68-8.89-3.649-13.618l4.52-7.05c2.011-3.137 2.011-7.157 0-10.294l-4.52-7.05c-3.031-4.728-1.34-11.039 3.649-13.618l7.439-3.846c3.31-1.711 5.32-5.193 5.147-8.915l-.389-8.365c-.261-5.61 4.359-10.23 9.969-9.969l8.365.389c3.722.173 7.204-1.837 8.915-5.147l3.846-7.439c2.579-4.989 8.89-6.68 13.618-3.649l7.05 4.52c3.137 2.011 7.158 2.011 10.294 0z" fill="#f9c8dc"/></g><g><path d="m287.089 260.195-.389-8.365c-.173-3.722 1.837-7.204 5.147-8.915l7.439-3.846c4.989-2.579 6.68-8.89 3.649-13.618l-4.52-7.05c-2.011-3.137-2.011-7.157 0-10.294l4.52-7.05c2.012-3.139 1.933-6.97.199-9.949-15.784 6.836-29.84 16.932-41.311 29.436-6.392 6.967-16.966 8.175-24.82 2.912-12.903-8.647-33.573-19.33-56.895-19.33-6.103 0-12.724.591-19.633 1.692l1.468 2.29c2.011 3.137 2.011 7.157 0 10.294l-4.52 7.05c-3.031 4.728-1.34 11.039 3.649 13.618l7.439 3.846c3.31 1.711 5.32 5.193 5.147 8.915l-.389 8.365c-.261 5.611 4.359 10.231 9.97 9.969l8.365-.389c3.722-.173 7.204 1.837 8.915 5.147l3.846 7.44c2.579 4.989 8.89 6.68 13.618 3.649l7.05-4.52c3.137-2.011 7.157-2.011 10.294 0l7.05 4.52c4.728 3.031 11.039 1.34 13.618-3.649l3.846-7.44c1.711-3.31 5.193-5.32 8.914-5.147l8.365.389c5.61.26 10.23-4.36 9.969-9.97z" fill="#efa5c4"/></g></g><g><g><g><path d="m254.16 302.427c0-40.899-33.155-74.052-74.053-74.053-40.898 0-116.369 33.155-116.369 74.053z" fill="#fbf0dc"/></g><g><path d="m175.358 302.427h78.802c0-30.514-18.461-56.709-44.819-68.048-.944 27.48-13.993 51.883-33.983 68.048z" fill="#f4e2c1"/></g><g><path d="m138.42 302.427c0-23.027 18.667-41.694 41.694-41.694s41.694 18.667 41.694 41.694z" fill="#e9a761"/></g><g><path d="m202.112 267.01c-5.917 13.902-15.165 26.045-26.754 35.416h46.451c0-14.95-7.875-28.056-19.697-35.416z" fill="#e38523"/></g></g><g><g><path d="m254.16 302.427c0-53.483 43.512-96.995 96.995-96.995s96.995 43.512 96.995 96.995z" fill="#f8e883"/></g><g><path d="m286.492 302.427c0-35.655 29.008-64.663 64.663-64.663s64.663 29.008 64.663 64.663z" fill="#f3d332"/></g><g><path d="m318.824 302.427c0-17.856 14.475-32.332 32.332-32.332s32.332 14.475 32.332 32.332z" fill="#f8e883"/></g></g></g><g><path d="m367.138 504.5h-222.28c-11.16 0-20.207-9.047-20.207-20.207v-12.124h262.695v12.124c0 11.16-9.048 20.207-20.208 20.207z" fill="#91dafa"/></g><g><path d="m387.346 472.168h-262.696c-41.293 0-74.767-33.474-74.767-74.767v-94.974h412.229v94.974c.001 41.293-33.474 74.767-74.766 74.767z" fill="#d3effd"/></g><g><path d="m412.605 302.427v94.974c0 41.293-53.682 74.767-94.974 74.767h69.715c41.293 0 74.767-33.474 74.767-74.767v-94.974z" fill="#b2e5fb"/></g><path d="m462.115 294.931h-6.736c-2.36-33.125-20.226-62.028-46.364-79.474v-49.757c0-4.143-3.358-7.5-7.5-7.5s-7.5 3.357-7.5 7.5v41.431c-5.539-2.501-11.336-4.529-17.335-6.041v-99.2h17.335v28.81c0 4.143 3.358 7.5 7.5 7.5s7.5-3.357 7.5-7.5v-28.81h24.83c4.142 0 7.5-3.357 7.5-7.5l-.003-64.663c0-4.143-3.358-7.5-7.5-7.5h-24.88c-.747-12.382-11.052-22.227-23.618-22.227-6.052 0-11.759 2.262-16.179 6.392-4.233-3.96-9.913-6.392-16.153-6.392-6.053 0-11.759 2.262-16.179 6.392-4.233-3.96-9.912-6.392-16.153-6.392-6.314 0-12.256 2.456-16.75 6.934-4.12 4.134-6.525 9.52-6.869 15.294h-227.024c-4.142 0-7.5 3.357-7.5 7.5l-.002 64.663c0 4.143 3.358 7.5 7.5 7.5h42.01c4.142 0 7.5-3.357 7.5-7.5s-3.358-7.5-7.5-7.5h-34.51v-17.33h348.81v17.33h-279.3c-4.142 0-7.5 3.357-7.5 7.5s3.358 7.5 7.5 7.5h149.971v75.931l-1.729-.895c-.705-.364-1.136-1.111-1.101-1.896l.391-8.373c.221-4.776-1.591-9.455-4.973-12.837-3.381-3.381-8.056-5.192-12.839-4.973l-8.372.392c-.786.044-1.534-.396-1.894-1.09l-3.842-7.443c-2.196-4.248-6.104-7.395-10.723-8.633s-9.579-.469-13.608 2.113l-7.045 4.518c-.669.429-1.531.431-2.198.003l-7.052-4.522c-4.027-2.579-8.986-3.349-13.605-2.111s-8.527 4.385-10.722 8.63l-3.853 7.445c-.362.699-1.102 1.138-1.896 1.09l-8.373-.391c-4.778-.215-9.455 1.592-12.836 4.973-3.381 3.382-5.194 8.061-4.973 12.84l.391 8.384c.038.781-.391 1.521-1.096 1.885l-7.438 3.85c-4.247 2.196-7.393 6.104-8.631 10.722-1.238 4.619-.469 9.578 2.113 13.608l4.522 7.055c.426.662.423 1.523-.003 2.189l-4.515 7.043c-.783 1.218-1.395 2.511-1.84 3.855-39.366 9.953-86.135 36.067-92.334 69.68h-7.057c-4.142 0-7.5 3.357-7.5 7.5v94.97c0 42.832 32.907 78.107 74.765 81.912v4.979c0 15.278 12.43 27.708 27.708 27.708h222.281c15.278 0 27.707-12.43 27.707-27.708v-4.979c41.86-3.803 74.77-39.079 74.77-81.913v-94.97c-.001-4.144-3.359-7.501-7.501-7.501zm-35.773-240.37h-17.332v-17.333h17.332zm-47.142-37.02c1.645-1.639 3.826-2.541 6.144-2.541 4.778 0 8.666 3.888 8.666 8.666v30.895h-17.332v-30.895c0-2.317.902-4.499 2.522-6.125zm-32.331 0c1.644-1.639 3.825-2.541 6.143-2.541 4.778 0 8.666 3.888 8.666 8.666v30.895h-17.332v-30.895c0-2.317.903-4.499 2.523-6.125zm-32.332 0c1.645-1.639 3.826-2.541 6.144-2.541 4.778 0 8.666 3.888 8.666 8.666v30.895h-17.332v-30.895c-.001-2.317.902-4.499 2.522-6.125zm-17.523 19.687v17.333h-219.477v-17.333zm-239.629 272.703h397.23v17.327h-397.23zm89.373-15c3.428-15.26 17.077-26.698 33.356-26.698s29.929 11.439 33.356 26.698zm243.512 0c-3.518-18.391-19.714-32.336-39.114-32.336s-35.597 13.945-39.115 32.336h-17.542c3.685-27.989 27.678-49.668 56.656-49.668s52.971 21.679 56.656 49.668zm-15.442 0h-47.346c3.186-10.04 12.592-17.336 23.673-17.336s20.487 7.296 23.673 17.336zm65.506 0h-17.405c-3.762-36.281-34.514-64.668-71.773-64.668s-68.012 28.386-71.774 64.668h-17.404c3.821-45.853 42.355-81.999 89.178-81.999s85.357 36.146 89.178 81.999zm-78.654-96.472c-3.462-.348-6.972-.528-10.524-.528-2.288 0-4.556.082-6.808.228v-96.269h17.332zm-32.332-96.568v98.337c-5.981 1.275-11.774 3.063-17.332 5.316v-103.653zm-161.089 102.171-4.519-7.047c-.402-.629-.36-1.233-.253-1.631.106-.396.372-.94 1.035-1.283l7.435-3.849c5.903-3.05 9.51-9.305 9.189-15.922l-.39-8.367c-.035-.743.305-1.246.595-1.537.291-.289.788-.633 1.533-.595l8.358.39c6.642.33 12.886-3.287 15.932-9.185l3.852-7.442c.342-.661.886-.927 1.283-1.033.398-.106 1.002-.148 1.627.252l7.046 4.519c5.578 3.581 12.795 3.583 18.39.002l7.048-4.519c.628-.403 1.231-.361 1.629-.254.396.106.94.372 1.28 1.029l3.849 7.456c3.062 5.893 9.311 9.489 15.926 9.176l8.357-.391c.735-.046 1.245.305 1.536.595.291.291.63.794.596 1.534l-.391 8.378c-.303 6.624 3.309 12.871 9.195 15.912l7.443 3.852c.661.342.926.886 1.033 1.282.106.397.149 1.003-.252 1.628l-4.517 7.045c-2.637 4.106-3.327 9.098-2.084 13.678-16.647 12.05-29.618 28.878-36.88 48.459-2.697-5.415-5.973-10.491-9.756-15.142 1.459-1.368 2.376-3.308 2.376-5.467 0-4.143-3.358-7.5-7.5-7.5-13.692 0-24.832-11.14-24.832-24.832s11.139-24.832 24.832-24.832c4.778 0 8.666 3.888 8.666 8.666s-3.888 8.666-8.666 8.666c-4.142 0-7.5 3.357-7.5 7.5s3.358 7.5 7.5 7.5c13.049 0 23.666-10.616 23.666-23.666s-10.617-23.666-23.666-23.666c-21.963 0-39.832 17.868-39.832 39.832 0 3.458.445 6.815 1.277 10.017-6.282-1.556-12.843-2.396-19.599-2.396-3.53 0-7.336.244-11.338.709 3.056-5.457 2.889-12.228-.509-17.521zm-58.014 52.548c22.195-12.403 50.271-20.736 69.863-20.736 34.162 0 62.381 25.877 66.119 59.057h-17.489c-3.621-23.581-24.046-41.698-48.624-41.698s-45.003 18.117-48.624 41.698h-59.147c3.773-13.092 17.12-26.706 37.902-38.321zm277.126 208.059c-.009 0-.017-.001-.026-.001-.013 0-189.73.002-189.73.002-4.142 0-7.5 3.357-7.5 7.5s3.358 7.5 7.5 7.5h182.23v4.622c0 7.007-5.7 12.708-12.707 12.708h-222.28c-7.007 0-12.708-5.701-12.708-12.708v-4.622h30.465c4.142 0 7.5-3.357 7.5-7.5s-3.358-7.5-7.5-7.5c0 0-37.952-.002-37.965-.002-.008 0-.016.001-.024.001-37.08-.016-67.241-30.186-67.241-67.269v-55.143h397.23v55.143c0 37.084-30.163 67.255-67.244 67.269z"/></g></svg>