<svg id="Capa_1" enable-background="new 0 0 512 512" height="512" viewBox="0 0 512 512" width="512" xmlns="http://www.w3.org/2000/svg"><g><g><path d="m304.122 134.801c-110.295.198-199.646 89.67-199.646 200.012v90.915h351.537c26.779 0 48.488-21.709 48.488-48.488v-40.714c-.001-110.21-90.169-201.922-200.379-201.725z" fill="#dbb56a"/></g><g><path d="m360.822 353.559c-2.462 4.249-3.893 9.169-3.893 14.434 0 15.943 12.925 28.867 28.868 28.867 0 15.943 12.925 28.867 28.867 28.867 15.943 0 28.868-12.924 28.868-28.868 15.943 0 28.868-12.924 28.867-28.868 0-5.264-1.432-10.184-3.893-14.434 2.462-4.249 3.893-9.169 3.893-14.434 0-15.943-12.924-28.868-28.867-28.868 0-15.943-12.924-28.868-28.868-28.868-15.942 0-28.867 12.924-28.867 28.867-15.943 0-28.868 12.924-28.868 28.867 0 5.267 1.432 10.187 3.893 14.438z" fill="#9a6a53"/></g><g><path d="m443.531 310.257c0-15.943-12.924-28.868-28.867-28.868-15.942 0-28.867 12.924-28.867 28.867-15.943 0-28.868 12.924-28.868 28.867 0 1.048.072 2.077.182 3.095 6.692 6.28 15.169 10.584 24.428 12.132 8.729 10.167 21.645 16.435 35.628 16.435 4.24 0 8.469-.578 12.572-1.717 18.112-5.029 30.8-20.076 33.738-37.493 2.059-1.766 3.95-3.701 5.66-5.776-4.815-9.233-14.471-15.542-25.606-15.542z" fill="#855b47"/></g><g><path d="m406.902 248.438c.417 3.412 1.691 6.764 3.911 9.704 6.722 8.906 19.391 10.677 28.297 3.955 6.722 8.906 19.391 10.677 28.296 3.955 8.906-6.722 10.677-19.391 3.955-28.297 8.906-6.722 10.677-19.391 3.955-28.297-2.219-2.941-5.094-5.085-8.26-6.421-.417-3.412-1.691-6.764-3.91-9.704-6.722-8.906-19.391-10.677-28.297-3.955-6.722-8.906-19.391-10.677-28.297-3.955-8.906 6.721-10.676 19.39-3.955 28.296-8.906 6.722-10.677 19.39-3.955 28.297 2.218 2.941 5.093 5.086 8.26 6.422z" fill="#9a6a53"/></g><g><path d="m142.037 182.296c3.419.351 6.97-.148 10.33-1.66 10.176-4.578 14.713-16.538 10.135-26.714 10.176-4.578 14.713-16.538 10.135-26.713-4.578-10.176-16.538-14.713-26.714-10.135-4.578-10.176-16.538-14.713-26.714-10.135-3.36 1.512-6.089 3.838-8.094 6.63-3.419-.351-6.97.148-10.33 1.66-10.176 4.578-14.713 16.538-10.135 26.714-10.176 4.578-14.713 16.538-10.135 26.714 4.578 10.175 16.538 14.713 26.713 10.135 4.578 10.176 16.538 14.713 26.714 10.136 3.36-1.513 6.089-3.84 8.095-6.632z" fill="#855b47"/></g><g><path d="m467.405 266.053c1.864-1.407 3.396-3.084 4.622-4.923-4.96-17.351-19.46-30.151-36.798-33.295 6.26-10.926 9.859-23.564 9.859-37.033 0-1.806-.087-3.591-.214-5.365-3.523.373-6.994 1.654-10.027 3.943-6.722-8.906-19.391-10.677-28.297-3.955-8.906 6.721-10.676 19.39-3.955 28.296-8.906 6.722-10.677 19.39-3.955 28.297 2.219 2.941 5.093 5.086 8.261 6.422.417 3.412 1.691 6.764 3.911 9.704 6.722 8.906 19.391 10.677 28.297 3.955 6.722 8.905 19.391 10.675 28.296 3.954z" fill="#855b47"/></g><g><circle cx="370.337" cy="190.801" fill="#e27f86" r="50.508"/></g><g><path d="m370.337 241.309c12.988 0 24.828-4.906 33.777-12.962-10.113-18.439-22.868-35.609-38.093-51.011-9.006-9.11-18.632-17.344-28.768-24.681-10.668 9.261-17.424 22.91-17.424 38.146 0 27.895 22.613 50.508 50.508 50.508z" fill="#df646e"/></g><g><circle cx="370.337" cy="190.801" fill="#dc4955" r="18.183"/></g><g><circle cx="224.674" cy="134.801" fill="#e27f86" r="50.508"/></g><g><path d="m224.674 185.309c27.895 0 50.508-22.613 50.508-50.508 0-4.976-.732-9.779-2.072-14.32-21.018-6.534-43.073-9.924-65.608-9.924h-.399c-9.313.017-18.54.598-27.64 1.727-3.384 6.781-5.298 14.423-5.298 22.516.001 27.896 22.614 50.509 50.509 50.509z" fill="#df646e"/></g><g><path d="m280.114 181.083c2.702 2.759 6.128 4.878 10.116 5.985 12.079 3.353 24.588-3.72 27.941-15.799 12.079 3.353 24.588-3.72 27.941-15.798 3.353-12.079-3.72-24.588-15.799-27.942 3.353-12.079-3.72-24.588-15.799-27.942-3.988-1.107-8.017-1.057-11.754-.086-2.702-2.759-6.128-4.878-10.116-5.985-12.079-3.353-24.588 3.72-27.942 15.799-12.079-3.353-24.588 3.72-27.942 15.799-3.353 12.078 3.72 24.588 15.799 27.941-3.353 12.079 3.72 24.588 15.798 27.942 3.99 1.107 8.019 1.057 11.757.086z" fill="#abd641"/></g><g><path d="m252.561 153.055c-3.353 12.079 3.72 24.588 15.798 27.942 3.988 1.107 8.017 1.057 11.755.086 2.702 2.759 6.128 4.878 10.116 5.985 12.079 3.353 24.588-3.72 27.941-15.799 11.021 3.059 22.396-2.564 26.852-12.745-29.594-23.417-64.067-38.747-100.761-44.902-3.507 2.864-6.197 6.797-7.501 11.492-3.352 12.078 3.721 24.588 15.8 27.941z" fill="#9ec63d"/></g><g><path d="m367.282 302.361c-.971 3.737-1.021 7.766.087 11.754 3.354 12.078 15.864 19.151 27.943 15.797 3.354 12.078 15.864 19.151 27.942 15.797s19.151-15.864 15.797-27.942c12.078-3.354 19.151-15.864 15.797-27.942-1.107-3.988-3.227-7.414-5.986-10.116.971-3.737 1.021-7.766-.087-11.754-3.354-12.078-15.864-19.151-27.942-15.797-3.354-12.078-15.864-19.151-27.942-15.797s-19.15 15.864-15.797 27.942c-12.078 3.354-19.151 15.864-15.797 27.942 1.106 3.988 3.226 7.414 5.985 10.116z" fill="#abd641"/></g><g><path d="m361.296 292.245c1.107 3.988 3.227 7.414 5.986 10.117-.971 3.737-1.021 7.766.087 11.754 3.354 12.078 15.864 19.151 27.942 15.797 3.354 12.078 15.864 19.151 27.942 15.797 3.233-.898 6.103-2.457 8.515-4.483v-4.7c0-34.636-7.857-68.18-22.704-98.619-4.841-2.409-10.555-3.108-16.175-1.547-12.078 3.354-19.15 15.864-15.796 27.942-12.078 3.353-19.151 15.863-15.797 27.942z" fill="#9ec63d"/></g><g><path d="m456.012 425.727c-26.779 0-48.488-21.709-48.488-48.488v-40.714c0-110.21-90.168-201.923-200.378-201.725-110.295.198-199.646 89.671-199.646 200.013v42.427c0 26.779 21.709 48.488 48.488 48.488h400.024z" fill="#f3d69e"/></g><g><path d="m245.949 388.998c-13.741 13.741-28.183 25.997-43.008 36.73h253.072c-26.779 0-48.488-21.709-48.488-48.488v-40.714c0-61.491-28.077-117.214-72.035-154.437 6.857 62.925-25.202 142.57-89.541 206.909z" fill="#edc472"/></g><g><circle cx="166.084" cy="260.017" r="8.081"/><circle cx="299.219" cy="303.908" r="8.081"/><circle cx="307.301" cy="229.468" r="8.081"/><circle cx="78.542" cy="369.158" r="8.081"/><circle cx="183.868" cy="377.24" r="8.081"/><circle cx="62.049" cy="301.888" r="8.081"/><path d="m484.44 233.031c1.069-2.376 1.813-4.913 2.185-7.566 1.024-7.33-.866-14.618-5.326-20.527-2.091-2.765-4.681-5.106-7.616-6.905-.927-3.321-2.468-6.455-4.553-9.222-4.456-5.904-10.945-9.72-18.272-10.745-3.681-.516-7.348-.285-10.837.627-5.717-5.005-11.734-9.726-17.951-14.091-9.589-18.85-29.169-31.802-51.729-31.802-4.369 0-8.718.519-12.958 1.489-2.72-.731-5.495-1.421-8.309-2.054-2.719-3.948-6.281-7.156-10.449-9.403.267-5.62-1.054-11.215-3.894-16.237-3.971-7.021-10.436-12.077-18.217-14.239-3.748-1.034-7.666-1.327-11.521-.879-3.07-2.371-6.581-4.139-10.338-5.188-7.774-2.159-15.922-1.16-22.94 2.809-2.265 1.281-4.313 2.834-6.137 4.595-6.881-6.844-15.413-11.921-24.77-14.626-3.979-1.151-8.138 1.144-9.288 5.123s1.144 8.138 5.123 9.288c5.687 1.643 10.962 4.476 15.492 8.242-10.539 2.353-19.508 10.271-22.592 21.383-.483 1.737-.793 3.506-.96 5.284-15.358-1.602-31.182-1.42-46.497.505 2.01-14.401 11.26-27.056 24.707-33.212 3.767-1.724 5.422-6.175 3.698-9.941-1.724-3.767-6.178-5.422-9.941-3.698-13.775 6.306-24.28 17.672-29.726 31.283-2.051-1.533-4.326-2.793-6.786-3.727-4.784-1.816-9.858-2.269-14.767-1.37-7.681-9.754-21.312-13.443-33.155-8.122-3.143 1.421-5.995 3.424-8.403 5.886-3.442.166-6.839.973-10.003 2.394-11.826 5.326-18.107 17.974-15.902 30.194-3.926 3.077-6.955 7.174-8.769 11.958-2.624 6.917-2.398 14.443.632 21.179.488 1.09 1.054 2.141 1.678 3.155-7.58 6.252-14.756 13.054-21.437 20.403-2.787 3.064-2.561 7.808.504 10.594 3.063 2.786 7.808 2.561 10.594-.504 36.344-39.977 88.158-62.964 142.154-63.065 50.755-.127 98.811 19.942 135.347 56.411 37.085 37.018 57.509 85.963 57.509 137.819v40.71c0 16.169 6.89 30.76 17.888 40.99h-55.388c-4.143 0-7.5 3.358-7.5 7.5s3.357 7.5 7.5 7.5c0 0 93.566-.005 93.604-.006 30.82-.06 55.876-25.151 55.876-55.985v-40.708c0-36.251-9.52-71.937-27.56-103.499zm-397.086-67.457c-1.392-3.093-1.496-6.544-.292-9.716 1.203-3.172 3.568-5.685 6.661-7.076 1.814-.816 3.23-2.319 3.936-4.179.706-1.859.644-3.923-.172-5.738-2.873-6.386-.01-13.924 6.374-16.799 2.025-.91 4.266-1.27 6.48-1.039 2.666.274 5.285-.896 6.856-3.074 1.331-1.846 3.046-3.252 5.082-4.172 6.392-2.873 13.932-.017 16.805 6.368.816 1.814 2.319 3.23 4.179 3.936s3.923.644 5.738-.172c3.093-1.392 6.544-1.495 9.714-.292 3.172 1.204 5.685 3.572 7.083 6.681.174.386.31.786.444 1.186-28.356 5.781-55.246 17.437-78.846 34.163-.014-.027-.03-.051-.042-.077zm361.426 27.348c3.359.47 6.334 2.219 8.373 4.921 1.356 1.799 2.182 3.851 2.455 6.099.325 2.673 2.058 4.966 4.54 6.009 2.077.874 3.822 2.23 5.182 4.029 2.043 2.706 2.909 6.047 2.439 9.409-.471 3.362-2.221 6.337-4.928 8.379-1.59 1.198-2.638 2.979-2.913 4.95s.243 3.97 1.442 5.559c2.045 2.708 2.913 6.051 2.443 9.412-.47 3.359-2.219 6.334-4.927 8.378-2.339 1.766-5.19 2.627-8.05 2.537-4.85-11.872-16.715-19.316-29.309-18.741-2.67-4.96-6.686-9.077-11.707-11.917-.556-.314-1.121-.603-1.69-.88 9.606-9.974 15.566-23.308 16.166-37.835.193.222.392.439.571.675 2.498 3.301 7.198 3.954 10.5 1.459.667-.504 1.373-.934 2.108-1.293.02-.009.039-.02.059-.029 2.236-1.076 4.737-1.472 7.246-1.121zm-204.787-65.803c2.241-8.074 10.635-12.815 18.709-10.578 3.989 1.109 8.125-1.229 9.232-5.221 1.086-3.913 3.63-7.167 7.162-9.165s7.633-2.499 11.535-1.416c2.56.715 4.9 2.102 6.767 4.011 1.881 1.922 4.646 2.691 7.246 2.016 2.595-.674 5.319-.655 7.866.047 3.909 1.086 7.164 3.632 9.164 7.167 1.999 3.535 2.502 7.633 1.416 11.54-.532 1.917-.281 3.966.697 5.698s2.605 3.004 4.521 3.537c3.91 1.086 7.164 3.631 9.164 7.167 1.999 3.535 2.502 7.633 1.415 11.542-1.753 6.323-7.389 10.74-13.786 11.096-24.588-17.279-52.34-28.865-81.642-34.086.055-1.127.228-2.253.534-3.355zm95.343 48.389c6.663-3.86 11.836-10.206 14.007-18.031.608-2.188.956-4.405 1.067-6.619 5.042-2.022 10.379-3.058 15.93-3.058 23.716 0 43.01 19.29 43.01 43 0 17.85-10.901 33.564-27.108 39.975-3.024-5.132-6.266-10.154-9.741-15.044 11.194-2.768 19.52-12.893 19.52-24.93 0-14.162-11.521-25.683-25.684-25.683-10.937 0-20.293 6.875-23.99 16.528-2.299-2.105-4.638-4.148-7.011-6.138zm20.318 15.293c0-5.891 4.792-10.683 10.683-10.683s10.684 4.792 10.684 10.683-4.793 10.683-10.684 10.683-10.683-4.792-10.683-10.683zm33.794 53.279c.472-.182.949-.354 1.445-.491 3.915-1.086 8.014-.584 11.547 1.413 3.532 1.998 6.076 5.252 7.162 9.165.532 1.917 1.804 3.543 3.535 4.523 1.73.979 3.78 1.23 5.697.698 8.084-2.243 16.477 2.5 18.716 10.559.707 2.559.725 5.283.051 7.878-.675 2.602.094 5.366 2.016 7.246 1.909 1.867 3.296 4.207 4.008 6.756 2.242 8.08-2.503 16.477-10.578 18.719-1.917.532-3.544 1.804-4.523 3.536s-1.229 3.782-.697 5.698c1.086 3.909.584 8.008-1.414 11.542-1.998 3.535-5.253 6.08-9.169 7.167-2.039.568-4.158.685-6.223.39v-2.347c-.001-32.528-7.468-63.979-21.573-92.452zm21.572 133.16v-23.284c.717.051 1.435.086 2.154.086 2.713 0 5.434-.366 8.085-1.104 7.773-2.158 14.24-7.214 18.211-14.237 2.839-5.022 4.157-10.619 3.889-16.242 1.607-.87 3.111-1.88 4.508-3.003 7.728 3.294 13.031 11.05 13.031 19.669 0 3.721-.998 7.416-2.885 10.685-1.341 2.323-1.34 5.185.004 7.506 1.885 3.257 2.881 6.95 2.881 10.679 0 11.778-9.587 21.36-21.371 21.36-4.143 0-7.5 3.358-7.5 7.5 0 4.879-1.624 9.483-4.557 13.195-9.981-7.482-16.45-19.404-16.45-32.81zm81.98-.001c0 22.601-18.387 40.988-40.987 40.988-.013 0-.026.002-.04.002-3.757-.003-7.393-.524-10.851-1.478 2.586-3.943 4.381-8.36 5.266-13.043 16.786-3.217 29.51-18.007 29.51-35.711 0-4.965-1.031-9.885-3.006-14.438 1.975-4.558 3.006-9.476 3.006-14.433 0-13.676-7.438-25.729-18.928-31.944 2.408-5.957 2.953-12.72 1.104-19.38-1.038-3.716-2.786-7.195-5.126-10.245 5.355-.333 10.583-2.202 14.977-5.521 4.205-3.174 7.343-7.382 9.175-12.186 10.447 24.175 15.9 50.267 15.9 76.68z"/><path d="m327.52 418.23h-271.53c-22.602 0-40.99-18.388-40.99-40.99v-42.43c0-36.47 10.246-71.967 29.631-102.654 2.212-3.502 1.167-8.134-2.335-10.346-3.502-2.213-8.135-1.167-10.346 2.335-20.902 33.088-31.95 71.355-31.95 110.665v42.43c0 30.873 25.117 55.99 55.99 55.99h271.53c4.143 0 7.5-3.358 7.5-7.5s-3.358-7.5-7.5-7.5z"/><path d="m94.374 236.543 12.122-12.122c2.929-2.929 2.929-7.678 0-10.606-2.929-2.929-7.678-2.929-10.606 0l-12.122 12.122c-2.929 2.929-2.929 7.678 0 10.606 1.464 1.464 3.384 2.197 5.303 2.197s3.839-.732 5.303-2.197z"/><path d="m128.358 325.33 12.122-12.122c2.929-2.929 2.929-7.678 0-10.606-2.929-2.929-7.678-2.929-10.606 0l-12.122 12.122c-2.929 2.929-2.929 7.678 0 10.606 1.464 1.464 3.384 2.197 5.303 2.197s3.839-.732 5.303-2.197z"/><path d="m190.793 176.644-12.122 12.122c-2.929 2.929-2.929 7.678 0 10.606 1.464 1.464 3.384 2.197 5.303 2.197s3.839-.732 5.303-2.197l12.122-12.122c2.929-2.929 2.929-7.678 0-10.606-2.928-2.928-7.677-2.928-10.606 0z"/><path d="m209.001 319.489c1.919 0 3.839-.732 5.303-2.197l12.122-12.122c2.929-2.929 2.929-7.678 0-10.606-2.929-2.93-7.678-2.929-10.606 0l-12.122 12.122c-2.929 2.929-2.929 7.678 0 10.606 1.465 1.466 3.384 2.197 5.303 2.197z"/><path d="m241.641 244.474 12.122-12.122c2.929-2.929 2.929-7.678 0-10.606-2.929-2.93-7.678-2.929-10.606 0l-12.122 12.122c-2.929 2.929-2.929 7.678 0 10.606 1.464 1.465 3.384 2.197 5.303 2.197s3.838-.733 5.303-2.197z"/><path d="m285.835 365.876-12.122 12.122c-2.93 2.929-2.93 7.677-.001 10.606 1.465 1.465 3.384 2.197 5.304 2.197 1.919 0 3.839-.732 5.303-2.197l12.122-12.122c2.93-2.929 2.93-7.677.001-10.606-2.93-2.929-7.679-2.929-10.607 0z"/><path d="m371.826 319.269c2.93-2.929 2.93-7.677.001-10.606s-7.678-2.93-10.606 0l-12.122 12.122c-2.93 2.929-2.93 7.677-.001 10.606 1.465 1.465 3.384 2.197 5.304 2.197 1.919 0 3.839-.732 5.303-2.197z"/></g></g></svg>